<?xml version="1.0" encoding="utf-8"?>
<!-- Generator: Adobe Illustrator 15.1.0, SVG Export Plug-In . SVG Version: 6.00 Build 0)  -->
<!DOCTYPE svg PUBLIC "-//W3C//DTD SVG 1.1//EN" "http://www.w3.org/Graphics/SVG/1.1/DTD/svg11.dtd">
<svg version="1.1" id="Layer_1" xmlns="http://www.w3.org/2000/svg" xmlns:xlink="http://www.w3.org/1999/xlink" x="0px" y="0px"
	 width="493.986px" height="90.311px" viewBox="0 0 493.986 90.311" enable-background="new 0 0 493.986 90.311"
	 xml:space="preserve">
<g>
	<g>
		<path fill="#37474F" d="M9.938,0l32.736,78.337L75.533,0h9.998v88.762h-7.498V49.989l0.609-39.503L45.602,88.762h-5.793
			L6.889,10.791L7.5,49.989v38.772H0V0H9.938z"/>
		<path fill="#37474F" d="M201.533,88.762V0h24.812c5.525,0,10.615,0.956,15.27,2.865c4.654,1.911,8.658,4.633,12.01,8.169
			c3.354,3.536,5.965,7.783,7.834,12.741c1.869,4.959,2.805,10.486,2.805,16.582v8.107c0,6.097-0.936,11.625-2.805,16.582
			c-1.869,4.959-4.49,9.196-7.863,12.711c-3.375,3.516-7.418,6.229-12.133,8.139s-9.916,2.865-15.605,2.865H201.533z M209.031,6.401
			v76.021h16.826c4.754,0,9.043-0.823,12.863-2.469c3.818-1.646,7.07-3.963,9.754-6.95c2.682-2.987,4.744-6.563,6.188-10.729
			c1.441-4.166,2.164-8.768,2.164-13.809v-8.291c0-5.121-0.732-9.763-2.195-13.93c-1.463-4.166-3.525-7.712-6.188-10.638
			s-5.863-5.191-9.602-6.797c-3.738-1.605-7.904-2.408-12.496-2.408H209.031z"/>
		<path fill="#37474F" d="M327.305,46.21h-41.516v36.212h47.732v6.34h-55.232V0h54.928v6.401h-47.428V39.87h41.516V46.21z"/>
		<path fill="#37474F" d="M410.4,88.762h-7.498l-51.025-75.959v75.959h-7.561V0h7.561l51.086,76.021V0h7.438V88.762z"/>
		<path fill="#37474F" d="M476.977,63.889h-40.295l-9.145,24.873h-7.865L453.262,0h7.133l33.592,88.762h-7.805L476.977,63.889z
			 M438.998,57.488H474.6L456.799,9.145L438.998,57.488z"/>
	</g>
	<path fill="none" stroke="#00B0FF" stroke-width="7" stroke-linecap="round" stroke-miterlimit="10" d="M102.378,66.311V44.938
		c0-12.088,9.799-22.127,21.888-22.127h22.612"/>
	<path fill="none" stroke="#76FF03" stroke-width="7" stroke-linecap="round" stroke-miterlimit="10" d="M164.878,86.811h-21.549
		c-12.089,0-21.951-9.113-21.951-21.201V43.311"/>
	<path fill="none" stroke="#FFEA00" stroke-width="7" stroke-linecap="round" stroke-miterlimit="10" d="M185.378,25.311v20.059
		c0,12.088-9.682,23.441-21.77,23.441h-21.73"/>
	<path fill="none" stroke="#FF3D00" stroke-width="7" stroke-linecap="round" stroke-miterlimit="10" d="M123.878,3.811h20.882
		c12.088,0,22.618,9.8,22.618,21.889v22.611"/>
</g>
</svg>
