<?xml version="1.0" encoding="utf-8"?>
<!-- Generator: Adobe Illustrator 15.1.0, SVG Export Plug-In . SVG Version: 6.00 Build 0)  -->
<!DOCTYPE svg PUBLIC "-//W3C//DTD SVG 1.1//EN" "http://www.w3.org/Graphics/SVG/1.1/DTD/svg11.dtd">
<svg version="1.1" id="Layer_1" xmlns="http://www.w3.org/2000/svg" xmlns:xlink="http://www.w3.org/1999/xlink" x="0px" y="0px"
	 width="167.153px" height="31.063px" viewBox="0 0 167.153 31.063" enable-background="new 0 0 167.153 31.063"
	 xml:space="preserve">
<g>
	<path fill="#FFEA00" d="M54.827,24.063h-8.251c-0.829,0-1.5-0.672-1.5-1.5s0.671-1.5,1.5-1.5h8.251
		c3.238,0,5.749-3.632,5.749-6.756V7.063c0-0.829,0.671-1.5,1.5-1.5s1.5,0.671,1.5,1.5v7.244
		C63.576,18.921,59.983,24.063,54.827,24.063z"/>
	<g>
		<path fill="#F7F7F7" d="M3.379,0l11.135,26.643L25.688,0h3.4v30.188h-2.55V17.001l0.207-13.435L15.509,30.188h-1.97L2.343,3.67
			l0.208,13.332v13.187H0V0H3.379z"/>
		<path fill="#F7F7F7" d="M67.689,30.188V0h8.439c1.879,0,3.609,0.325,5.193,0.974c1.582,0.65,2.943,1.576,4.084,2.778
			c1.141,1.203,2.028,2.647,2.664,4.333c0.636,1.687,0.953,3.566,0.953,5.64v2.757c0,2.074-0.317,3.953-0.953,5.641
			c-0.636,1.686-1.527,3.127-2.674,4.322c-1.148,1.195-2.523,2.118-4.127,2.768c-1.604,0.65-3.373,0.975-5.307,0.975H67.689z
			 M70.24,2.177v25.855h5.723c1.617,0,3.074-0.279,4.374-0.84c1.299-0.56,2.405-1.348,3.317-2.363s1.613-2.232,2.104-3.648
			c0.49-1.418,0.735-2.982,0.735-4.697v-2.819c0-1.742-0.248-3.321-0.746-4.738c-0.498-1.417-1.199-2.623-2.104-3.618
			c-0.906-0.995-1.995-1.766-3.266-2.312c-1.271-0.546-2.689-0.819-4.25-0.819H70.24z"/>
		<path fill="#F7F7F7" d="M110.465,15.716H96.346v12.316h16.232v2.156H93.795V0h18.681v2.177h-16.13V13.56h14.119V15.716z"/>
		<path fill="#F7F7F7" d="M138.726,30.188h-2.55L118.822,4.354v25.834h-2.572V0h2.572l17.374,25.854V0h2.529V30.188z"/>
		<path fill="#F7F7F7" d="M161.368,21.729h-13.704l-3.11,8.459h-2.675L153.303,0h2.426l11.425,30.188h-2.654L161.368,21.729z
			 M148.451,19.551h12.109L154.506,3.11L148.451,19.551z"/>
	</g>
	<path fill="#00B0FF" d="M35.076,22.563c-0.829,0-1.5-0.672-1.5-1.5v-7.065c0-4.598,3.884-7.935,9.234-7.935h7.766
		c0.829,0,1.5,0.671,1.5,1.5s-0.671,1.5-1.5,1.5h-7.766c-3.098,0-6.234,1.695-6.234,4.935v7.065
		C36.576,21.891,35.905,22.563,35.076,22.563z"/>
	<path fill="#76FF03" d="M56.576,31.063h-7.367c-5.042,0-9.633-4.351-9.633-9.127v-7.873c0-0.829,0.671-1.5,1.5-1.5
		s1.5,0.671,1.5,1.5v7.873c0,3.092,3.286,6.127,6.633,6.127h7.367c0.829,0,1.5,0.672,1.5,1.5S57.405,31.063,56.576,31.063z"/>
	<path fill="#FF3D00" d="M56.076,16.563c-0.829,0-1.5-0.671-1.5-1.5V7.541c0-3.097-1.507-4.478-4.887-4.478h-7.113
		c-0.829,0-1.5-0.671-1.5-1.5s0.671-1.5,1.5-1.5h7.113c5.012,0,7.887,2.726,7.887,7.478v7.522
		C57.576,15.892,56.905,16.563,56.076,16.563z"/>
</g>
</svg>
