<?xml version="1.0" encoding="utf-8"?>
<!-- Generator: Adobe Illustrator 15.1.0, SVG Export Plug-In . SVG Version: 6.00 Build 0)  -->
<!DOCTYPE svg PUBLIC "-//W3C//DTD SVG 1.1//EN" "http://www.w3.org/Graphics/SVG/1.1/DTD/svg11.dtd">
<svg version="1.1" id="Layer_1" xmlns="http://www.w3.org/2000/svg" xmlns:xlink="http://www.w3.org/1999/xlink" x="0px" y="0px"
	 width="750.536px" height="272.71px" viewBox="0 0 750.536 272.71" enable-background="new 0 0 750.536 272.71"
	 xml:space="preserve">
<g>
	<line fill="none" stroke="#546E7A" stroke-miterlimit="10" x1="744.965" y1="249.353" x2="28.791" y2="249.353"/>
	<line fill="none" stroke="#546E7A" stroke-miterlimit="10" x1="36.102" y1="10.657" x2="36.102" y2="255.944"/>
	<g>
		<path fill="#546E7A" d="M3.589,5.935c0.397,0,0.761,0.059,1.091,0.176c0.33,0.117,0.612,0.283,0.846,0.498
			C5.76,6.823,5.943,7.082,6.075,7.384c0.131,0.302,0.196,0.638,0.196,1.007c0,0.318-0.046,0.612-0.14,0.882
			c-0.094,0.27-0.219,0.528-0.376,0.775c-0.157,0.247-0.341,0.485-0.551,0.715s-0.431,0.465-0.662,0.704l-1.943,1.985
			c0.191-0.056,0.377-0.098,0.561-0.128c0.183-0.03,0.357-0.045,0.524-0.045h2.211c0.159,0,0.285,0.045,0.379,0.134
			c0.093,0.089,0.14,0.208,0.14,0.354v0.882H0.501v-0.489c0-0.099,0.021-0.203,0.062-0.31c0.042-0.107,0.108-0.207,0.2-0.298
			l2.617-2.623c0.219-0.223,0.415-0.435,0.587-0.638C4.14,10.09,4.285,9.89,4.402,9.69c0.117-0.198,0.207-0.4,0.268-0.605
			c0.062-0.205,0.093-0.42,0.093-0.646c0-0.207-0.03-0.389-0.089-0.545c-0.06-0.157-0.146-0.29-0.256-0.396
			C4.306,7.39,4.174,7.309,4.021,7.255C3.868,7.202,3.696,7.175,3.505,7.175c-0.354,0-0.645,0.09-0.874,0.269
			s-0.389,0.419-0.48,0.721C2.108,8.315,2.042,8.424,1.955,8.489C1.868,8.555,1.756,8.588,1.622,8.588
			c-0.06,0-0.125-0.006-0.197-0.018L0.65,8.433c0.06-0.413,0.175-0.776,0.346-1.088C1.167,7.033,1.38,6.772,1.636,6.564
			s0.55-0.366,0.882-0.471C2.851,5.988,3.207,5.935,3.589,5.935z"/>
		<path fill="#546E7A" d="M13.055,10.34c0,0.751-0.08,1.404-0.241,1.958c-0.161,0.554-0.383,1.012-0.667,1.374
			s-0.62,0.631-1.008,0.808c-0.387,0.177-0.806,0.265-1.254,0.265c-0.449,0-0.866-0.088-1.249-0.265
			c-0.384-0.177-0.716-0.446-0.999-0.808s-0.503-0.82-0.662-1.374c-0.159-0.555-0.239-1.208-0.239-1.958
			c0-0.755,0.08-1.409,0.239-1.961c0.159-0.553,0.379-1.01,0.662-1.371C7.918,6.646,8.251,6.377,8.635,6.2
			c0.383-0.177,0.8-0.265,1.249-0.265c0.449,0,0.867,0.088,1.254,0.265c0.388,0.177,0.724,0.446,1.008,0.808
			c0.284,0.361,0.506,0.818,0.667,1.371C12.975,8.932,13.055,9.585,13.055,10.34z M11.535,10.34c0-0.624-0.045-1.141-0.137-1.55
			c-0.092-0.409-0.214-0.735-0.367-0.978c-0.153-0.243-0.329-0.413-0.528-0.51s-0.405-0.146-0.62-0.146
			c-0.211,0-0.415,0.049-0.611,0.146S8.902,7.57,8.751,7.813C8.6,8.055,8.479,8.381,8.39,8.791s-0.134,0.926-0.134,1.55
			c0,0.624,0.044,1.141,0.134,1.55c0.089,0.41,0.21,0.735,0.361,0.978c0.151,0.242,0.325,0.412,0.521,0.509
			c0.197,0.098,0.4,0.146,0.611,0.146c0.214,0,0.421-0.049,0.62-0.146c0.199-0.097,0.375-0.267,0.528-0.509
			c0.153-0.243,0.275-0.568,0.367-0.978C11.489,11.481,11.535,10.964,11.535,10.34z"/>
		<path fill="#546E7A" d="M14.479,13.547h1.747V8.522c0-0.195,0.006-0.399,0.018-0.614l-1.24,1.037
			c-0.051,0.044-0.104,0.074-0.158,0.09c-0.054,0.016-0.106,0.023-0.158,0.023c-0.08,0-0.152-0.017-0.217-0.05
			c-0.066-0.034-0.114-0.073-0.146-0.116l-0.465-0.638l2.629-2.235h1.21v7.529h1.55v1.103h-4.769V13.547z"/>
		<path fill="#546E7A" d="M25.209,6.656c0,0.211-0.066,0.382-0.2,0.513c-0.133,0.131-0.354,0.197-0.665,0.197h-2.373l-0.31,1.8
			c0.39-0.08,0.745-0.119,1.067-0.119c0.453,0,0.851,0.067,1.195,0.203s0.633,0.322,0.868,0.561c0.234,0.238,0.411,0.518,0.53,0.837
			s0.179,0.665,0.179,1.034c0,0.457-0.08,0.875-0.241,1.252s-0.384,0.7-0.67,0.969c-0.286,0.268-0.625,0.476-1.017,0.623
			s-0.818,0.22-1.279,0.22c-0.27,0-0.526-0.028-0.769-0.083c-0.242-0.055-0.47-0.13-0.683-0.223
			c-0.212-0.094-0.409-0.201-0.59-0.322c-0.181-0.121-0.343-0.249-0.486-0.384l0.453-0.626c0.095-0.135,0.222-0.203,0.381-0.203
			c0.099,0,0.2,0.032,0.301,0.095c0.101,0.064,0.219,0.133,0.354,0.209c0.135,0.075,0.292,0.145,0.471,0.208
			c0.179,0.063,0.396,0.095,0.65,0.095c0.271,0,0.509-0.043,0.715-0.131s0.378-0.21,0.516-0.367c0.137-0.157,0.241-0.344,0.31-0.561
			c0.069-0.216,0.104-0.452,0.104-0.707c0-0.469-0.136-0.835-0.409-1.1c-0.272-0.264-0.672-0.396-1.201-0.396
			c-0.417,0-0.836,0.076-1.258,0.227l-0.918-0.262l0.715-4.185h4.256V6.656z"/>
	</g>
	<g>
		<path fill="#546E7A" d="M3.589,45.959c0.397,0,0.761,0.059,1.091,0.176c0.33,0.117,0.612,0.283,0.846,0.498
			c0.234,0.214,0.417,0.473,0.549,0.775c0.131,0.302,0.196,0.638,0.196,1.007c0,0.318-0.046,0.612-0.14,0.882
			c-0.094,0.27-0.219,0.528-0.376,0.775c-0.157,0.247-0.341,0.485-0.551,0.715s-0.431,0.465-0.662,0.704l-1.943,1.985
			c0.191-0.056,0.377-0.098,0.561-0.128c0.183-0.03,0.357-0.045,0.524-0.045h2.211c0.159,0,0.285,0.045,0.379,0.134
			c0.093,0.089,0.14,0.208,0.14,0.354v0.882H0.501v-0.489c0-0.099,0.021-0.203,0.062-0.31c0.042-0.107,0.108-0.207,0.2-0.298
			l2.617-2.623c0.219-0.223,0.415-0.435,0.587-0.638c0.173-0.203,0.318-0.403,0.435-0.603c0.117-0.198,0.207-0.4,0.268-0.605
			c0.062-0.205,0.093-0.42,0.093-0.646c0-0.207-0.03-0.389-0.089-0.545c-0.06-0.157-0.146-0.29-0.256-0.396
			c-0.111-0.107-0.244-0.188-0.396-0.242c-0.153-0.054-0.325-0.081-0.516-0.081c-0.354,0-0.645,0.09-0.874,0.269
			s-0.389,0.419-0.48,0.721c-0.043,0.151-0.109,0.259-0.197,0.325c-0.087,0.066-0.199,0.099-0.333,0.099
			c-0.06,0-0.125-0.006-0.197-0.018L0.65,48.457c0.06-0.413,0.175-0.776,0.346-1.088c0.171-0.312,0.384-0.572,0.641-0.781
			s0.55-0.366,0.882-0.471C2.851,46.012,3.207,45.959,3.589,45.959z"/>
		<path fill="#546E7A" d="M13.055,50.364c0,0.751-0.08,1.404-0.241,1.958c-0.161,0.554-0.383,1.012-0.667,1.374
			s-0.62,0.631-1.008,0.808c-0.387,0.177-0.806,0.265-1.254,0.265c-0.449,0-0.866-0.088-1.249-0.265
			c-0.384-0.177-0.716-0.446-0.999-0.808s-0.503-0.82-0.662-1.374c-0.159-0.555-0.239-1.208-0.239-1.958
			c0-0.755,0.08-1.409,0.239-1.961c0.159-0.553,0.379-1.01,0.662-1.371c0.282-0.362,0.615-0.631,0.999-0.808
			c0.383-0.177,0.8-0.265,1.249-0.265c0.449,0,0.867,0.088,1.254,0.265c0.388,0.177,0.724,0.446,1.008,0.808
			c0.284,0.361,0.506,0.818,0.667,1.371C12.975,48.956,13.055,49.609,13.055,50.364z M11.535,50.364c0-0.624-0.045-1.141-0.137-1.55
			c-0.092-0.409-0.214-0.735-0.367-0.978c-0.153-0.243-0.329-0.413-0.528-0.51s-0.405-0.146-0.62-0.146
			c-0.211,0-0.415,0.049-0.611,0.146s-0.371,0.267-0.521,0.51C8.6,48.079,8.479,48.405,8.39,48.814s-0.134,0.926-0.134,1.55
			c0,0.624,0.044,1.141,0.134,1.55c0.089,0.41,0.21,0.735,0.361,0.978c0.151,0.242,0.325,0.412,0.521,0.509
			c0.197,0.098,0.4,0.146,0.611,0.146c0.214,0,0.421-0.049,0.62-0.146c0.199-0.097,0.375-0.267,0.528-0.509
			c0.153-0.243,0.275-0.568,0.367-0.978C11.489,51.505,11.535,50.988,11.535,50.364z"/>
		<path fill="#546E7A" d="M14.479,53.571h1.747v-5.025c0-0.195,0.006-0.399,0.018-0.614l-1.24,1.037
			c-0.051,0.044-0.104,0.074-0.158,0.09c-0.054,0.016-0.106,0.023-0.158,0.023c-0.08,0-0.152-0.017-0.217-0.05
			c-0.066-0.034-0.114-0.073-0.146-0.116l-0.465-0.638l2.629-2.235h1.21v7.529h1.55v1.103h-4.769V53.571z"/>
		<path fill="#546E7A" d="M24.929,51.425h1.085v0.853c0,0.08-0.026,0.148-0.077,0.206c-0.052,0.058-0.127,0.086-0.227,0.086h-0.781
			v2.104h-1.288V52.57h-3.636c-0.099,0-0.187-0.031-0.262-0.092s-0.123-0.138-0.143-0.229l-0.149-0.745l4.083-5.455h1.395V51.425z
			 M23.642,48.606c0-0.127,0.004-0.264,0.012-0.412c0.008-0.147,0.021-0.3,0.042-0.459l-2.676,3.69h2.623V48.606z"/>
	</g>
	<g>
		<path fill="#546E7A" d="M3.589,85.134c0.397,0,0.761,0.059,1.091,0.176c0.33,0.117,0.612,0.283,0.846,0.498
			c0.234,0.214,0.417,0.473,0.549,0.775c0.131,0.302,0.196,0.638,0.196,1.007c0,0.318-0.046,0.612-0.14,0.882
			c-0.094,0.27-0.219,0.528-0.376,0.775c-0.157,0.247-0.341,0.485-0.551,0.715s-0.431,0.465-0.662,0.704l-1.943,1.985
			c0.191-0.056,0.377-0.098,0.561-0.128c0.183-0.03,0.357-0.045,0.524-0.045h2.211c0.159,0,0.285,0.045,0.379,0.134
			c0.093,0.089,0.14,0.208,0.14,0.354v0.882H0.501v-0.489c0-0.099,0.021-0.203,0.062-0.31c0.042-0.107,0.108-0.207,0.2-0.298
			L3.38,90.13c0.219-0.223,0.415-0.435,0.587-0.638c0.173-0.203,0.318-0.403,0.435-0.603c0.117-0.198,0.207-0.4,0.268-0.605
			c0.062-0.205,0.093-0.42,0.093-0.646c0-0.207-0.03-0.389-0.089-0.545c-0.06-0.157-0.146-0.29-0.256-0.396
			c-0.111-0.107-0.244-0.188-0.396-0.242c-0.153-0.054-0.325-0.081-0.516-0.081c-0.354,0-0.645,0.09-0.874,0.269
			s-0.389,0.419-0.48,0.721c-0.043,0.151-0.109,0.259-0.197,0.325c-0.087,0.066-0.199,0.099-0.333,0.099
			c-0.06,0-0.125-0.006-0.197-0.018L0.65,87.632c0.06-0.413,0.175-0.776,0.346-1.088c0.171-0.312,0.384-0.572,0.641-0.781
			s0.55-0.366,0.882-0.471C2.851,85.187,3.207,85.134,3.589,85.134z"/>
		<path fill="#546E7A" d="M13.055,89.54c0,0.751-0.08,1.404-0.241,1.958c-0.161,0.554-0.383,1.012-0.667,1.374
			s-0.62,0.631-1.008,0.808c-0.387,0.177-0.806,0.265-1.254,0.265c-0.449,0-0.866-0.088-1.249-0.265
			c-0.384-0.177-0.716-0.446-0.999-0.808s-0.503-0.82-0.662-1.374c-0.159-0.555-0.239-1.208-0.239-1.958
			c0-0.755,0.08-1.409,0.239-1.961c0.159-0.553,0.379-1.01,0.662-1.371c0.282-0.362,0.615-0.631,0.999-0.808
			c0.383-0.177,0.8-0.265,1.249-0.265c0.449,0,0.867,0.088,1.254,0.265c0.388,0.177,0.724,0.446,1.008,0.808
			c0.284,0.361,0.506,0.818,0.667,1.371C12.975,88.131,13.055,88.785,13.055,89.54z M11.535,89.54c0-0.624-0.045-1.141-0.137-1.55
			c-0.092-0.409-0.214-0.735-0.367-0.978c-0.153-0.243-0.329-0.413-0.528-0.51s-0.405-0.146-0.62-0.146
			c-0.211,0-0.415,0.049-0.611,0.146s-0.371,0.267-0.521,0.51C8.6,87.254,8.479,87.581,8.39,87.99s-0.134,0.926-0.134,1.55
			c0,0.624,0.044,1.141,0.134,1.55c0.089,0.41,0.21,0.735,0.361,0.978c0.151,0.242,0.325,0.412,0.521,0.509
			c0.197,0.098,0.4,0.146,0.611,0.146c0.214,0,0.421-0.049,0.62-0.146c0.199-0.097,0.375-0.267,0.528-0.509
			c0.153-0.243,0.275-0.568,0.367-0.978C11.489,90.68,11.535,90.164,11.535,89.54z"/>
		<path fill="#546E7A" d="M14.479,92.747h1.747v-5.025c0-0.195,0.006-0.399,0.018-0.614l-1.24,1.037
			c-0.051,0.044-0.104,0.074-0.158,0.09c-0.054,0.016-0.106,0.023-0.158,0.023c-0.08,0-0.152-0.017-0.217-0.05
			c-0.066-0.034-0.114-0.073-0.146-0.116l-0.465-0.638l2.629-2.235h1.21v7.529h1.55v1.103h-4.769V92.747z"/>
		<path fill="#546E7A" d="M23.04,85.134c0.397,0,0.756,0.057,1.076,0.17s0.593,0.271,0.82,0.471s0.4,0.436,0.521,0.706
			c0.121,0.271,0.182,0.562,0.182,0.876c0,0.274-0.031,0.516-0.092,0.724c-0.062,0.209-0.151,0.391-0.268,0.545
			c-0.118,0.155-0.261,0.286-0.429,0.394c-0.169,0.107-0.361,0.197-0.575,0.268c0.516,0.163,0.902,0.412,1.156,0.746
			c0.254,0.333,0.381,0.753,0.381,1.258c0,0.429-0.08,0.809-0.238,1.138c-0.159,0.33-0.374,0.607-0.644,0.832
			c-0.27,0.225-0.583,0.395-0.938,0.51c-0.356,0.115-0.732,0.173-1.13,0.173c-0.433,0-0.811-0.05-1.133-0.149
			c-0.322-0.099-0.602-0.246-0.84-0.441s-0.441-0.433-0.608-0.715s-0.31-0.608-0.429-0.978l0.65-0.268
			c0.111-0.048,0.224-0.071,0.339-0.071c0.104,0,0.196,0.021,0.277,0.065s0.144,0.107,0.188,0.191
			c0.071,0.139,0.15,0.276,0.235,0.411s0.188,0.255,0.307,0.361c0.119,0.105,0.259,0.19,0.42,0.256
			c0.161,0.065,0.353,0.098,0.575,0.098c0.25,0,0.469-0.041,0.656-0.122c0.187-0.082,0.343-0.188,0.468-0.319
			c0.125-0.131,0.218-0.277,0.28-0.438c0.062-0.161,0.092-0.323,0.092-0.486c0-0.207-0.022-0.394-0.065-0.563
			c-0.044-0.168-0.135-0.312-0.274-0.432c-0.139-0.119-0.339-0.212-0.599-0.28c-0.26-0.068-0.609-0.102-1.046-0.102v-1.055
			c0.362,0,0.662-0.032,0.9-0.095s0.428-0.152,0.569-0.266c0.141-0.113,0.239-0.249,0.295-0.408
			c0.056-0.159,0.083-0.333,0.083-0.524c0-0.409-0.111-0.718-0.334-0.927c-0.223-0.208-0.526-0.313-0.912-0.313
			c-0.35,0-0.64,0.093-0.87,0.277s-0.392,0.421-0.483,0.711c-0.048,0.151-0.113,0.259-0.197,0.324
			c-0.083,0.066-0.193,0.098-0.328,0.098c-0.064,0-0.131-0.006-0.203-0.018l-0.775-0.135c0.06-0.414,0.175-0.776,0.346-1.088
			c0.17-0.312,0.384-0.572,0.641-0.781c0.256-0.208,0.55-0.365,0.882-0.471C22.301,85.187,22.658,85.134,23.04,85.134z"/>
	</g>
	<g>
		<path fill="#546E7A" d="M3.589,125.159c0.397,0,0.761,0.059,1.091,0.176c0.33,0.117,0.612,0.283,0.846,0.498
			c0.234,0.214,0.417,0.473,0.549,0.775c0.131,0.302,0.196,0.638,0.196,1.007c0,0.318-0.046,0.612-0.14,0.882
			c-0.094,0.27-0.219,0.528-0.376,0.775c-0.157,0.247-0.341,0.485-0.551,0.715s-0.431,0.465-0.662,0.704l-1.943,1.985
			c0.191-0.056,0.377-0.098,0.561-0.128c0.183-0.03,0.357-0.045,0.524-0.045h2.211c0.159,0,0.285,0.045,0.379,0.134
			c0.093,0.089,0.14,0.208,0.14,0.354v0.882H0.501v-0.489c0-0.099,0.021-0.203,0.062-0.31c0.042-0.107,0.108-0.207,0.2-0.298
			l2.617-2.623c0.219-0.223,0.415-0.435,0.587-0.638c0.173-0.203,0.318-0.403,0.435-0.603c0.117-0.198,0.207-0.4,0.268-0.605
			c0.062-0.205,0.093-0.42,0.093-0.646c0-0.207-0.03-0.389-0.089-0.545c-0.06-0.157-0.146-0.29-0.256-0.396
			c-0.111-0.107-0.244-0.188-0.396-0.242c-0.153-0.054-0.325-0.081-0.516-0.081c-0.354,0-0.645,0.09-0.874,0.269
			s-0.389,0.419-0.48,0.721c-0.043,0.151-0.109,0.259-0.197,0.325c-0.087,0.066-0.199,0.099-0.333,0.099
			c-0.06,0-0.125-0.006-0.197-0.018l-0.775-0.137c0.06-0.413,0.175-0.776,0.346-1.088c0.171-0.312,0.384-0.572,0.641-0.781
			s0.55-0.366,0.882-0.471C2.851,125.212,3.207,125.159,3.589,125.159z"/>
		<path fill="#546E7A" d="M13.055,129.564c0,0.751-0.08,1.404-0.241,1.958c-0.161,0.554-0.383,1.012-0.667,1.374
			s-0.62,0.631-1.008,0.808c-0.387,0.177-0.806,0.265-1.254,0.265c-0.449,0-0.866-0.088-1.249-0.265
			c-0.384-0.177-0.716-0.446-0.999-0.808s-0.503-0.82-0.662-1.374c-0.159-0.555-0.239-1.208-0.239-1.958
			c0-0.755,0.08-1.409,0.239-1.961c0.159-0.553,0.379-1.01,0.662-1.371c0.282-0.362,0.615-0.631,0.999-0.808
			c0.383-0.177,0.8-0.265,1.249-0.265c0.449,0,0.867,0.088,1.254,0.265c0.388,0.177,0.724,0.446,1.008,0.808
			c0.284,0.361,0.506,0.818,0.667,1.371C12.975,128.156,13.055,128.81,13.055,129.564z M11.535,129.564
			c0-0.624-0.045-1.141-0.137-1.55c-0.092-0.409-0.214-0.735-0.367-0.978c-0.153-0.243-0.329-0.413-0.528-0.51
			s-0.405-0.146-0.62-0.146c-0.211,0-0.415,0.049-0.611,0.146s-0.371,0.267-0.521,0.51c-0.151,0.242-0.271,0.568-0.361,0.978
			s-0.134,0.926-0.134,1.55c0,0.624,0.044,1.141,0.134,1.55c0.089,0.41,0.21,0.735,0.361,0.978c0.151,0.242,0.325,0.412,0.521,0.509
			c0.197,0.098,0.4,0.146,0.611,0.146c0.214,0,0.421-0.049,0.62-0.146c0.199-0.097,0.375-0.267,0.528-0.509
			c0.153-0.243,0.275-0.568,0.367-0.978C11.489,130.705,11.535,130.188,11.535,129.564z"/>
		<path fill="#546E7A" d="M14.479,132.771h1.747v-5.025c0-0.195,0.006-0.399,0.018-0.614l-1.24,1.037
			c-0.051,0.044-0.104,0.074-0.158,0.09c-0.054,0.016-0.106,0.023-0.158,0.023c-0.08,0-0.152-0.017-0.217-0.05
			c-0.066-0.034-0.114-0.073-0.146-0.116l-0.465-0.638l2.629-2.235h1.21v7.529h1.55v1.103h-4.769V132.771z"/>
		<path fill="#546E7A" d="M22.903,125.159c0.397,0,0.761,0.059,1.091,0.176c0.33,0.117,0.612,0.283,0.846,0.498
			c0.234,0.214,0.417,0.473,0.549,0.775c0.131,0.302,0.196,0.638,0.196,1.007c0,0.318-0.046,0.612-0.14,0.882
			c-0.094,0.27-0.219,0.528-0.376,0.775c-0.157,0.247-0.341,0.485-0.551,0.715s-0.431,0.465-0.662,0.704l-1.943,1.985
			c0.191-0.056,0.377-0.098,0.561-0.128c0.183-0.03,0.357-0.045,0.524-0.045h2.211c0.159,0,0.285,0.045,0.379,0.134
			c0.093,0.089,0.14,0.208,0.14,0.354v0.882h-5.913v-0.489c0-0.099,0.021-0.203,0.062-0.31c0.042-0.107,0.108-0.207,0.2-0.298
			l2.617-2.623c0.219-0.223,0.415-0.435,0.587-0.638c0.173-0.203,0.318-0.403,0.435-0.603c0.117-0.198,0.207-0.4,0.268-0.605
			c0.062-0.205,0.093-0.42,0.093-0.646c0-0.207-0.03-0.389-0.089-0.545c-0.06-0.157-0.146-0.29-0.256-0.396
			c-0.111-0.107-0.244-0.188-0.396-0.242c-0.153-0.054-0.325-0.081-0.516-0.081c-0.354,0-0.645,0.09-0.874,0.269
			s-0.389,0.419-0.48,0.721c-0.043,0.151-0.109,0.259-0.197,0.325c-0.087,0.066-0.199,0.099-0.333,0.099
			c-0.06,0-0.125-0.006-0.197-0.018l-0.775-0.137c0.06-0.413,0.175-0.776,0.346-1.088c0.171-0.312,0.384-0.572,0.641-0.781
			s0.55-0.366,0.882-0.471C22.165,125.212,22.521,125.159,22.903,125.159z"/>
	</g>
	<g>
		<path fill="#546E7A" d="M3.589,164.333c0.397,0,0.761,0.059,1.091,0.176c0.33,0.117,0.612,0.283,0.846,0.498
			c0.234,0.214,0.417,0.473,0.549,0.774c0.131,0.302,0.196,0.638,0.196,1.007c0,0.318-0.046,0.612-0.14,0.883
			c-0.094,0.27-0.219,0.528-0.376,0.775c-0.157,0.246-0.341,0.484-0.551,0.715s-0.431,0.465-0.662,0.703l-1.943,1.985
			c0.191-0.056,0.377-0.099,0.561-0.128c0.183-0.029,0.357-0.045,0.524-0.045h2.211c0.159,0,0.285,0.045,0.379,0.135
			c0.093,0.089,0.14,0.207,0.14,0.354v0.883H0.501v-0.488c0-0.1,0.021-0.203,0.062-0.311c0.042-0.107,0.108-0.207,0.2-0.298
			l2.617-2.623c0.219-0.223,0.415-0.435,0.587-0.638s0.318-0.403,0.435-0.603c0.117-0.198,0.207-0.399,0.268-0.604
			s0.093-0.42,0.093-0.646c0-0.207-0.03-0.389-0.089-0.546c-0.06-0.157-0.146-0.29-0.256-0.396
			c-0.111-0.107-0.244-0.188-0.396-0.241c-0.153-0.055-0.325-0.081-0.516-0.081c-0.354,0-0.645,0.09-0.874,0.269
			s-0.389,0.42-0.48,0.721c-0.043,0.151-0.109,0.26-0.197,0.325s-0.199,0.099-0.333,0.099c-0.06,0-0.125-0.006-0.197-0.018
			L0.65,166.83c0.06-0.413,0.175-0.776,0.346-1.088s0.384-0.572,0.641-0.78c0.256-0.209,0.55-0.366,0.882-0.471
			C2.851,164.386,3.207,164.333,3.589,164.333z"/>
		<path fill="#546E7A" d="M13.055,168.737c0,0.752-0.08,1.404-0.241,1.959s-0.383,1.012-0.667,1.374s-0.62,0.631-1.008,0.808
			c-0.387,0.177-0.806,0.266-1.254,0.266c-0.449,0-0.866-0.089-1.249-0.266c-0.384-0.177-0.716-0.445-0.999-0.808
			s-0.503-0.819-0.662-1.374c-0.159-0.555-0.239-1.207-0.239-1.959c0-0.754,0.08-1.408,0.239-1.961
			c0.159-0.553,0.379-1.01,0.662-1.371s0.615-0.631,0.999-0.808c0.383-0.177,0.8-0.265,1.249-0.265c0.449,0,0.867,0.088,1.254,0.265
			c0.388,0.177,0.724,0.446,1.008,0.808s0.506,0.818,0.667,1.371S13.055,167.983,13.055,168.737z M11.535,168.737
			c0-0.623-0.045-1.141-0.137-1.549c-0.092-0.41-0.214-0.736-0.367-0.979c-0.153-0.242-0.329-0.412-0.528-0.51
			c-0.199-0.097-0.405-0.146-0.62-0.146c-0.211,0-0.415,0.049-0.611,0.146c-0.197,0.098-0.371,0.268-0.521,0.51
			s-0.271,0.568-0.361,0.979c-0.089,0.408-0.134,0.926-0.134,1.549c0,0.625,0.044,1.141,0.134,1.551
			c0.089,0.409,0.21,0.734,0.361,0.978c0.151,0.242,0.325,0.412,0.521,0.509c0.197,0.098,0.4,0.146,0.611,0.146
			c0.214,0,0.421-0.049,0.62-0.146c0.199-0.097,0.375-0.267,0.528-0.509c0.153-0.243,0.275-0.568,0.367-0.978
			C11.489,169.878,11.535,169.362,11.535,168.737z"/>
		<path fill="#546E7A" d="M14.479,171.944h1.747v-5.024c0-0.194,0.006-0.399,0.018-0.614l-1.24,1.037
			c-0.051,0.044-0.104,0.074-0.158,0.09s-0.106,0.023-0.158,0.023c-0.08,0-0.152-0.017-0.217-0.051
			c-0.066-0.033-0.114-0.072-0.146-0.115l-0.465-0.639l2.629-2.235h1.21v7.528h1.55v1.104h-4.769V171.944z"/>
		<path fill="#546E7A" d="M20.917,171.944h1.747v-5.024c0-0.194,0.006-0.399,0.018-0.614l-1.24,1.037
			c-0.051,0.044-0.104,0.074-0.158,0.09s-0.106,0.023-0.158,0.023c-0.08,0-0.152-0.017-0.217-0.051
			c-0.066-0.033-0.114-0.072-0.146-0.115l-0.465-0.639l2.629-2.235h1.21v7.528h1.55v1.104h-4.769V171.944z"/>
	</g>
	<g>
		<path fill="#546E7A" d="M3.589,204.358c0.397,0,0.761,0.059,1.091,0.176c0.33,0.117,0.612,0.283,0.846,0.498
			c0.234,0.214,0.417,0.473,0.549,0.774c0.131,0.302,0.196,0.638,0.196,1.007c0,0.318-0.046,0.612-0.14,0.883
			c-0.094,0.27-0.219,0.528-0.376,0.775c-0.157,0.246-0.341,0.484-0.551,0.715s-0.431,0.465-0.662,0.703l-1.943,1.985
			c0.191-0.056,0.377-0.099,0.561-0.128c0.183-0.029,0.357-0.045,0.524-0.045h2.211c0.159,0,0.285,0.045,0.379,0.135
			c0.093,0.089,0.14,0.207,0.14,0.354v0.883H0.501v-0.488c0-0.1,0.021-0.203,0.062-0.311c0.042-0.107,0.108-0.207,0.2-0.298
			l2.617-2.623c0.219-0.223,0.415-0.435,0.587-0.638s0.318-0.403,0.435-0.603c0.117-0.198,0.207-0.399,0.268-0.604
			s0.093-0.42,0.093-0.646c0-0.207-0.03-0.389-0.089-0.546c-0.06-0.157-0.146-0.29-0.256-0.396
			c-0.111-0.107-0.244-0.188-0.396-0.241c-0.153-0.055-0.325-0.081-0.516-0.081c-0.354,0-0.645,0.09-0.874,0.269
			s-0.389,0.42-0.48,0.721c-0.043,0.151-0.109,0.26-0.197,0.325s-0.199,0.099-0.333,0.099c-0.06,0-0.125-0.006-0.197-0.018
			l-0.775-0.138c0.06-0.413,0.175-0.776,0.346-1.088s0.384-0.572,0.641-0.78c0.256-0.209,0.55-0.366,0.882-0.471
			C2.851,204.411,3.207,204.358,3.589,204.358z"/>
		<path fill="#546E7A" d="M13.055,208.763c0,0.752-0.08,1.404-0.241,1.959s-0.383,1.012-0.667,1.374s-0.62,0.631-1.008,0.808
			c-0.387,0.177-0.806,0.266-1.254,0.266c-0.449,0-0.866-0.089-1.249-0.266c-0.384-0.177-0.716-0.445-0.999-0.808
			s-0.503-0.819-0.662-1.374c-0.159-0.555-0.239-1.207-0.239-1.959c0-0.754,0.08-1.408,0.239-1.961
			c0.159-0.553,0.379-1.01,0.662-1.371s0.615-0.631,0.999-0.808c0.383-0.177,0.8-0.265,1.249-0.265c0.449,0,0.867,0.088,1.254,0.265
			c0.388,0.177,0.724,0.446,1.008,0.808s0.506,0.818,0.667,1.371S13.055,208.009,13.055,208.763z M11.535,208.763
			c0-0.623-0.045-1.141-0.137-1.549c-0.092-0.41-0.214-0.736-0.367-0.979c-0.153-0.242-0.329-0.412-0.528-0.51
			c-0.199-0.097-0.405-0.146-0.62-0.146c-0.211,0-0.415,0.049-0.611,0.146c-0.197,0.098-0.371,0.268-0.521,0.51
			s-0.271,0.568-0.361,0.979c-0.089,0.408-0.134,0.926-0.134,1.549c0,0.625,0.044,1.141,0.134,1.551
			c0.089,0.409,0.21,0.734,0.361,0.978c0.151,0.242,0.325,0.412,0.521,0.509c0.197,0.098,0.4,0.146,0.611,0.146
			c0.214,0,0.421-0.049,0.62-0.146c0.199-0.097,0.375-0.267,0.528-0.509c0.153-0.243,0.275-0.568,0.367-0.978
			C11.489,209.903,11.535,209.388,11.535,208.763z"/>
		<path fill="#546E7A" d="M14.479,211.97h1.747v-5.024c0-0.194,0.006-0.399,0.018-0.614l-1.24,1.037
			c-0.051,0.044-0.104,0.074-0.158,0.09s-0.106,0.023-0.158,0.023c-0.08,0-0.152-0.017-0.217-0.051
			c-0.066-0.033-0.114-0.072-0.146-0.115l-0.465-0.639l2.629-2.235h1.21v7.528h1.55v1.104h-4.769V211.97z"/>
		<path fill="#546E7A" d="M25.931,208.763c0,0.752-0.08,1.404-0.241,1.959s-0.383,1.012-0.667,1.374s-0.62,0.631-1.008,0.808
			c-0.387,0.177-0.806,0.266-1.254,0.266c-0.449,0-0.866-0.089-1.249-0.266c-0.384-0.177-0.716-0.445-0.999-0.808
			s-0.503-0.819-0.662-1.374c-0.159-0.555-0.239-1.207-0.239-1.959c0-0.754,0.08-1.408,0.239-1.961
			c0.159-0.553,0.379-1.01,0.662-1.371s0.615-0.631,0.999-0.808c0.383-0.177,0.8-0.265,1.249-0.265c0.449,0,0.867,0.088,1.254,0.265
			c0.388,0.177,0.724,0.446,1.008,0.808s0.506,0.818,0.667,1.371S25.931,208.009,25.931,208.763z M24.411,208.763
			c0-0.623-0.045-1.141-0.137-1.549c-0.092-0.41-0.214-0.736-0.367-0.979c-0.153-0.242-0.329-0.412-0.528-0.51
			c-0.199-0.097-0.405-0.146-0.62-0.146c-0.211,0-0.415,0.049-0.611,0.146c-0.197,0.098-0.371,0.268-0.521,0.51
			s-0.271,0.568-0.361,0.979c-0.089,0.408-0.134,0.926-0.134,1.549c0,0.625,0.044,1.141,0.134,1.551
			c0.089,0.409,0.21,0.734,0.361,0.978c0.151,0.242,0.325,0.412,0.521,0.509c0.197,0.098,0.4,0.146,0.611,0.146
			c0.214,0,0.421-0.049,0.62-0.146c0.199-0.097,0.375-0.267,0.528-0.509c0.153-0.243,0.275-0.568,0.367-0.978
			C24.365,209.903,24.411,209.388,24.411,208.763z"/>
	</g>
	<g>
		<path fill="#546E7A" d="M3.589,243.532c0.397,0,0.761,0.059,1.091,0.176c0.33,0.117,0.612,0.283,0.846,0.498
			c0.234,0.214,0.417,0.473,0.549,0.774c0.131,0.302,0.196,0.638,0.196,1.007c0,0.318-0.046,0.612-0.14,0.883
			c-0.094,0.27-0.219,0.528-0.376,0.775c-0.157,0.246-0.341,0.484-0.551,0.715s-0.431,0.465-0.662,0.703l-1.943,1.985
			c0.191-0.056,0.377-0.099,0.561-0.128c0.183-0.029,0.357-0.045,0.524-0.045h2.211c0.159,0,0.285,0.045,0.379,0.135
			c0.093,0.089,0.14,0.207,0.14,0.354v0.883H0.501v-0.488c0-0.1,0.021-0.203,0.062-0.311c0.042-0.107,0.108-0.207,0.2-0.298
			l2.617-2.623c0.219-0.223,0.415-0.435,0.587-0.638s0.318-0.403,0.435-0.603c0.117-0.198,0.207-0.399,0.268-0.604
			s0.093-0.42,0.093-0.646c0-0.207-0.03-0.389-0.089-0.546c-0.06-0.157-0.146-0.29-0.256-0.396
			c-0.111-0.107-0.244-0.188-0.396-0.241c-0.153-0.055-0.325-0.081-0.516-0.081c-0.354,0-0.645,0.09-0.874,0.269
			s-0.389,0.42-0.48,0.721c-0.043,0.151-0.109,0.26-0.197,0.325s-0.199,0.099-0.333,0.099c-0.06,0-0.125-0.006-0.197-0.018
			l-0.775-0.138c0.06-0.413,0.175-0.776,0.346-1.088s0.384-0.572,0.641-0.78c0.256-0.209,0.55-0.366,0.882-0.471
			C2.851,243.585,3.207,243.532,3.589,243.532z"/>
		<path fill="#546E7A" d="M13.055,247.937c0,0.752-0.08,1.404-0.241,1.959s-0.383,1.012-0.667,1.374s-0.62,0.631-1.008,0.808
			c-0.387,0.177-0.806,0.266-1.254,0.266c-0.449,0-0.866-0.089-1.249-0.266c-0.384-0.177-0.716-0.445-0.999-0.808
			s-0.503-0.819-0.662-1.374c-0.159-0.555-0.239-1.207-0.239-1.959c0-0.754,0.08-1.408,0.239-1.961
			c0.159-0.553,0.379-1.01,0.662-1.371s0.615-0.631,0.999-0.808c0.383-0.177,0.8-0.265,1.249-0.265c0.449,0,0.867,0.088,1.254,0.265
			c0.388,0.177,0.724,0.446,1.008,0.808s0.506,0.818,0.667,1.371S13.055,247.183,13.055,247.937z M11.535,247.937
			c0-0.623-0.045-1.141-0.137-1.549c-0.092-0.41-0.214-0.736-0.367-0.979c-0.153-0.242-0.329-0.412-0.528-0.51
			c-0.199-0.097-0.405-0.146-0.62-0.146c-0.211,0-0.415,0.049-0.611,0.146c-0.197,0.098-0.371,0.268-0.521,0.51
			s-0.271,0.568-0.361,0.979c-0.089,0.408-0.134,0.926-0.134,1.549c0,0.625,0.044,1.141,0.134,1.551
			c0.089,0.409,0.21,0.734,0.361,0.978c0.151,0.242,0.325,0.412,0.521,0.509c0.197,0.098,0.4,0.146,0.611,0.146
			c0.214,0,0.421-0.049,0.62-0.146c0.199-0.097,0.375-0.267,0.528-0.509c0.153-0.243,0.275-0.568,0.367-0.978
			C11.489,249.077,11.535,248.562,11.535,247.937z"/>
		<path fill="#546E7A" d="M19.493,247.937c0,0.752-0.08,1.404-0.241,1.959s-0.383,1.012-0.667,1.374s-0.62,0.631-1.008,0.808
			c-0.387,0.177-0.806,0.266-1.254,0.266c-0.449,0-0.866-0.089-1.249-0.266c-0.384-0.177-0.716-0.445-0.999-0.808
			s-0.503-0.819-0.662-1.374c-0.159-0.555-0.239-1.207-0.239-1.959c0-0.754,0.08-1.408,0.239-1.961
			c0.159-0.553,0.379-1.01,0.662-1.371s0.615-0.631,0.999-0.808c0.383-0.177,0.8-0.265,1.249-0.265c0.449,0,0.867,0.088,1.254,0.265
			c0.388,0.177,0.724,0.446,1.008,0.808s0.506,0.818,0.667,1.371S19.493,247.183,19.493,247.937z M17.973,247.937
			c0-0.623-0.045-1.141-0.137-1.549c-0.092-0.41-0.214-0.736-0.367-0.979c-0.153-0.242-0.329-0.412-0.528-0.51
			c-0.199-0.097-0.405-0.146-0.62-0.146c-0.211,0-0.415,0.049-0.611,0.146c-0.197,0.098-0.371,0.268-0.521,0.51
			s-0.271,0.568-0.361,0.979c-0.089,0.408-0.134,0.926-0.134,1.549c0,0.625,0.044,1.141,0.134,1.551
			c0.089,0.409,0.21,0.734,0.361,0.978c0.151,0.242,0.325,0.412,0.521,0.509c0.197,0.098,0.4,0.146,0.611,0.146
			c0.214,0,0.421-0.049,0.62-0.146c0.199-0.097,0.375-0.267,0.528-0.509c0.153-0.243,0.275-0.568,0.367-0.978
			C17.927,249.077,17.973,248.562,17.973,247.937z"/>
		<path fill="#546E7A" d="M22.474,248.808c-0.298,0-0.59-0.052-0.876-0.155c-0.286-0.103-0.542-0.259-0.766-0.468
			s-0.404-0.467-0.54-0.775c-0.135-0.308-0.203-0.668-0.203-1.082c0-0.385,0.072-0.746,0.215-1.084s0.344-0.635,0.602-0.889
			s0.568-0.455,0.93-0.602c0.362-0.147,0.761-0.221,1.198-0.221c0.441,0,0.837,0.069,1.189,0.208c0.352,0.14,0.651,0.334,0.9,0.585
			c0.249,0.25,0.439,0.55,0.572,0.899c0.133,0.351,0.2,0.733,0.2,1.151c0,0.266-0.023,0.518-0.068,0.756
			c-0.046,0.238-0.111,0.469-0.197,0.689s-0.188,0.435-0.307,0.644c-0.119,0.208-0.252,0.418-0.399,0.629l-1.973,2.813
			c-0.067,0.096-0.168,0.176-0.301,0.242c-0.133,0.064-0.285,0.098-0.456,0.098H20.84l2.677-3.344
			c0.067-0.084,0.131-0.166,0.191-0.245s0.117-0.159,0.173-0.238c-0.199,0.128-0.417,0.224-0.656,0.289
			C22.986,248.774,22.736,248.808,22.474,248.808z M24.482,246.226c0-0.234-0.036-0.443-0.107-0.629
			c-0.071-0.184-0.173-0.34-0.304-0.467c-0.131-0.127-0.287-0.225-0.468-0.293c-0.181-0.067-0.378-0.102-0.593-0.102
			c-0.223,0-0.423,0.037-0.602,0.111c-0.179,0.073-0.331,0.176-0.456,0.307c-0.125,0.131-0.222,0.287-0.289,0.468
			s-0.101,0.378-0.101,0.593c0,0.481,0.124,0.848,0.373,1.1c0.248,0.253,0.601,0.379,1.058,0.379c0.238,0,0.45-0.037,0.635-0.113
			c0.185-0.075,0.341-0.179,0.468-0.31c0.127-0.132,0.224-0.286,0.289-0.465C24.45,246.626,24.482,246.433,24.482,246.226z"/>
	</g>
	<g>
		<path fill="#546E7A" d="M38.509,270.558h-1.24c-0.139,0-0.253-0.035-0.343-0.104s-0.154-0.155-0.194-0.259l-0.644-1.759h-3.571
			l-0.644,1.759c-0.032,0.092-0.094,0.175-0.188,0.25c-0.093,0.076-0.208,0.113-0.343,0.113h-1.246l3.386-8.62h1.639L38.509,270.558
			z M32.929,267.303h2.748l-1.049-2.867c-0.048-0.128-0.101-0.277-0.158-0.45s-0.114-0.361-0.17-0.563
			c-0.056,0.202-0.11,0.392-0.164,0.566c-0.054,0.175-0.106,0.328-0.158,0.459L32.929,267.303z"/>
		<path fill="#546E7A" d="M46.497,270.558h-1.24c-0.139,0-0.253-0.035-0.343-0.104s-0.154-0.155-0.194-0.259l-0.644-1.759h-3.571
			l-0.644,1.759c-0.032,0.092-0.094,0.175-0.188,0.25c-0.093,0.076-0.208,0.113-0.343,0.113h-1.246l3.386-8.62h1.639L46.497,270.558
			z M40.917,267.303h2.748l-1.049-2.867c-0.048-0.128-0.101-0.277-0.158-0.45s-0.114-0.361-0.17-0.563
			c-0.056,0.202-0.11,0.392-0.164,0.566c-0.054,0.175-0.106,0.328-0.158,0.459L40.917,267.303z"/>
	</g>
	<g>
		<path fill="#546E7A" d="M78.53,270.558v-8.62h2.975c0.564,0,1.046,0.054,1.445,0.161s0.728,0.26,0.984,0.459
			c0.256,0.199,0.444,0.439,0.563,0.721c0.119,0.283,0.179,0.601,0.179,0.955c0,0.202-0.03,0.396-0.089,0.58
			c-0.06,0.186-0.152,0.358-0.277,0.52c-0.125,0.16-0.284,0.307-0.477,0.438s-0.422,0.242-0.688,0.334
			c1.184,0.267,1.776,0.906,1.776,1.92c0,0.365-0.069,0.703-0.208,1.014c-0.139,0.31-0.342,0.576-0.608,0.801
			c-0.266,0.225-0.594,0.4-0.983,0.527c-0.39,0.128-0.834,0.191-1.335,0.191H78.53z M80.134,265.669h1.281
			c0.544,0,0.958-0.099,1.24-0.297c0.282-0.199,0.423-0.516,0.423-0.949c0-0.448-0.127-0.769-0.382-0.959
			c-0.254-0.191-0.652-0.286-1.192-0.286h-1.371V265.669z M80.134,266.778v2.527h1.627c0.298,0,0.548-0.035,0.749-0.107
			c0.201-0.071,0.361-0.166,0.483-0.286c0.121-0.119,0.208-0.259,0.262-0.417c0.054-0.159,0.081-0.328,0.081-0.507
			c0-0.187-0.03-0.354-0.09-0.504c-0.06-0.149-0.153-0.276-0.28-0.382c-0.127-0.104-0.291-0.186-0.489-0.24
			c-0.199-0.057-0.439-0.084-0.722-0.084H80.134z"/>
		<path fill="#546E7A" d="M85.82,270.558v-8.62h2.975c0.564,0,1.046,0.054,1.445,0.161s0.728,0.26,0.984,0.459
			c0.256,0.199,0.444,0.439,0.563,0.721c0.119,0.283,0.179,0.601,0.179,0.955c0,0.202-0.03,0.396-0.089,0.58
			c-0.06,0.186-0.152,0.358-0.277,0.52c-0.125,0.16-0.284,0.307-0.477,0.438s-0.422,0.242-0.688,0.334
			c1.184,0.267,1.776,0.906,1.776,1.92c0,0.365-0.069,0.703-0.208,1.014c-0.139,0.31-0.342,0.576-0.608,0.801
			c-0.266,0.225-0.594,0.4-0.983,0.527c-0.39,0.128-0.834,0.191-1.335,0.191H85.82z M87.424,265.669h1.281
			c0.544,0,0.958-0.099,1.24-0.297c0.282-0.199,0.423-0.516,0.423-0.949c0-0.448-0.127-0.769-0.382-0.959
			c-0.254-0.191-0.652-0.286-1.192-0.286h-1.371V265.669z M87.424,266.778v2.527h1.627c0.298,0,0.548-0.035,0.749-0.107
			c0.201-0.071,0.361-0.166,0.483-0.286c0.121-0.119,0.208-0.259,0.262-0.417c0.054-0.159,0.081-0.328,0.081-0.507
			c0-0.187-0.03-0.354-0.09-0.504c-0.06-0.149-0.153-0.276-0.28-0.382c-0.127-0.104-0.291-0.186-0.489-0.24
			c-0.199-0.057-0.439-0.084-0.722-0.084H87.424z"/>
	</g>
	<g>
		<path fill="#546E7A" d="M138.808,268.524c0.087,0,0.163,0.034,0.227,0.102l0.632,0.686c-0.35,0.434-0.78,0.766-1.291,0.996
			c-0.511,0.23-1.124,0.346-1.839,0.346c-0.64,0-1.215-0.109-1.726-0.328s-0.947-0.522-1.309-0.912s-0.639-0.854-0.832-1.395
			c-0.193-0.541-0.289-1.131-0.289-1.771c0-0.646,0.107-1.24,0.322-1.779c0.215-0.538,0.517-1.002,0.906-1.392
			c0.389-0.39,0.855-0.692,1.398-0.909s1.142-0.324,1.797-0.324c0.64,0,1.199,0.102,1.678,0.307
			c0.479,0.205,0.889,0.477,1.231,0.813l-0.536,0.745c-0.032,0.048-0.073,0.09-0.123,0.125c-0.049,0.036-0.118,0.055-0.206,0.055
			c-0.091,0-0.185-0.037-0.28-0.107c-0.095-0.072-0.216-0.149-0.363-0.232c-0.147-0.084-0.333-0.162-0.558-0.232
			c-0.225-0.072-0.51-0.107-0.855-0.107c-0.405,0-0.778,0.07-1.118,0.211s-0.632,0.343-0.876,0.605
			c-0.245,0.262-0.436,0.581-0.573,0.957c-0.137,0.375-0.206,0.797-0.206,1.266c0,0.485,0.069,0.916,0.206,1.294
			c0.137,0.378,0.323,0.696,0.558,0.954s0.511,0.456,0.829,0.594c0.318,0.137,0.66,0.205,1.025,0.205
			c0.218,0,0.416-0.012,0.593-0.035c0.177-0.024,0.339-0.062,0.489-0.113c0.149-0.053,0.29-0.119,0.423-0.2
			c0.133-0.081,0.265-0.183,0.396-0.302c0.04-0.035,0.082-0.064,0.125-0.086C138.708,268.536,138.756,268.524,138.808,268.524z"/>
		<path fill="#546E7A" d="M146.325,268.524c0.087,0,0.163,0.034,0.227,0.102l0.632,0.686c-0.35,0.434-0.78,0.766-1.291,0.996
			c-0.511,0.23-1.124,0.346-1.839,0.346c-0.64,0-1.215-0.109-1.726-0.328s-0.947-0.522-1.309-0.912s-0.639-0.854-0.832-1.395
			c-0.193-0.541-0.289-1.131-0.289-1.771c0-0.646,0.107-1.24,0.322-1.779c0.215-0.538,0.517-1.002,0.906-1.392
			c0.389-0.39,0.855-0.692,1.398-0.909s1.142-0.324,1.797-0.324c0.64,0,1.199,0.102,1.678,0.307
			c0.479,0.205,0.889,0.477,1.231,0.813l-0.536,0.745c-0.032,0.048-0.073,0.09-0.123,0.125c-0.049,0.036-0.118,0.055-0.206,0.055
			c-0.091,0-0.185-0.037-0.28-0.107c-0.095-0.072-0.216-0.149-0.363-0.232c-0.147-0.084-0.333-0.162-0.558-0.232
			c-0.225-0.072-0.51-0.107-0.855-0.107c-0.405,0-0.778,0.07-1.118,0.211s-0.632,0.343-0.876,0.605
			c-0.245,0.262-0.436,0.581-0.573,0.957c-0.137,0.375-0.206,0.797-0.206,1.266c0,0.485,0.069,0.916,0.206,1.294
			c0.137,0.378,0.323,0.696,0.558,0.954s0.511,0.456,0.829,0.594c0.318,0.137,0.66,0.205,1.025,0.205
			c0.218,0,0.416-0.012,0.593-0.035c0.177-0.024,0.339-0.062,0.489-0.113c0.149-0.053,0.29-0.119,0.423-0.2
			c0.133-0.081,0.265-0.183,0.396-0.302c0.04-0.035,0.082-0.064,0.125-0.086C146.226,268.536,146.273,268.524,146.325,268.524z"/>
	</g>
	<g>
		<path fill="#546E7A" d="M194.64,270.558h-1.24c-0.139,0-0.253-0.035-0.343-0.104s-0.154-0.155-0.194-0.259l-0.644-1.759h-3.571
			l-0.644,1.759c-0.032,0.092-0.094,0.175-0.188,0.25c-0.093,0.076-0.208,0.113-0.343,0.113h-1.246l3.386-8.62h1.639L194.64,270.558
			z M189.06,267.303h2.748l-1.049-2.867c-0.048-0.128-0.101-0.277-0.158-0.45s-0.114-0.361-0.17-0.563
			c-0.056,0.202-0.11,0.392-0.164,0.566c-0.054,0.175-0.106,0.328-0.158,0.459L189.06,267.303z"/>
		<path fill="#546E7A" d="M198.706,269.378c0.361,0,0.677-0.033,0.945-0.1c0.268-0.064,0.523-0.155,0.766-0.271v-1.567h-1.079
			c-0.104,0-0.185-0.029-0.245-0.087c-0.06-0.058-0.089-0.128-0.089-0.212v-0.906h2.868v3.488c-0.219,0.158-0.446,0.297-0.683,0.414
			c-0.237,0.117-0.489,0.213-0.757,0.289c-0.268,0.075-0.555,0.132-0.861,0.17c-0.306,0.037-0.636,0.057-0.989,0.057
			c-0.628,0-1.207-0.109-1.735-0.328c-0.529-0.219-0.986-0.522-1.371-0.912c-0.386-0.39-0.687-0.854-0.903-1.395
			c-0.216-0.541-0.325-1.131-0.325-1.771c0-0.646,0.105-1.241,0.316-1.781c0.21-0.541,0.51-1.006,0.897-1.396
			c0.388-0.39,0.857-0.691,1.41-0.906c0.552-0.214,1.172-0.321,1.86-0.321c0.703,0,1.312,0.104,1.827,0.312s0.951,0.48,1.308,0.814
			l-0.465,0.727c-0.091,0.146-0.212,0.221-0.364,0.221c-0.095,0-0.192-0.031-0.292-0.096c-0.127-0.075-0.257-0.15-0.39-0.227
			c-0.133-0.075-0.28-0.141-0.441-0.196c-0.161-0.056-0.342-0.102-0.542-0.138c-0.201-0.035-0.432-0.053-0.694-0.053
			c-0.425,0-0.81,0.07-1.153,0.214c-0.344,0.144-0.637,0.349-0.879,0.614c-0.243,0.266-0.429,0.586-0.561,0.959
			c-0.131,0.375-0.197,0.791-0.197,1.252c0,0.498,0.07,0.939,0.209,1.327c0.139,0.388,0.333,0.714,0.584,0.98s0.548,0.47,0.894,0.61
			C197.918,269.307,198.296,269.378,198.706,269.378z"/>
	</g>
	<g>
		<path fill="#546E7A" d="M244.011,266.122l-2.748-4.185h1.598c0.111,0,0.191,0.015,0.241,0.045s0.094,0.079,0.134,0.146
			l1.961,3.166c0.02-0.052,0.042-0.103,0.066-0.152c0.023-0.049,0.051-0.1,0.083-0.152l1.794-2.831
			c0.087-0.147,0.201-0.221,0.34-0.221h1.538l-2.778,4.12l2.855,4.5h-1.604c-0.107,0-0.194-0.027-0.259-0.084
			c-0.066-0.055-0.121-0.119-0.164-0.19l-1.997-3.302c-0.016,0.047-0.034,0.092-0.054,0.134s-0.04,0.08-0.06,0.116l-1.914,3.052
			c-0.044,0.067-0.098,0.13-0.161,0.188c-0.063,0.057-0.143,0.086-0.238,0.086h-1.502L244.011,266.122z"/>
		<path fill="#546E7A" d="M253.394,267.208v3.35h-1.604v-3.35l-3.141-5.271h1.413c0.139,0,0.25,0.034,0.331,0.102
			c0.081,0.067,0.15,0.153,0.206,0.257l1.58,2.879c0.091,0.171,0.171,0.332,0.238,0.486c0.068,0.152,0.129,0.303,0.185,0.449
			c0.051-0.15,0.11-0.303,0.176-0.456s0.144-0.312,0.235-0.479l1.568-2.879c0.044-0.088,0.109-0.17,0.197-0.245
			s0.199-0.113,0.334-0.113h1.418L253.394,267.208z"/>
	</g>
	<g>
		<path fill="#546E7A" d="M303.32,261.938v1.276h-3.821v2.551h3.225v1.281h-3.225v3.512h-1.616v-8.62H303.32z"/>
		<path fill="#546E7A" d="M309.537,261.938v1.276h-3.821v2.551h3.225v1.281h-3.225v3.512H304.1v-8.62H309.537z"/>
	</g>
	<g>
		<polyline fill="none" stroke="#FF4081" stroke-linecap="round" stroke-linejoin="round" stroke-miterlimit="10" points="
			743.972,193.854 657.993,114.373 529.028,233.597 443.147,154.363 400.068,193.854 357.078,154.363 271.104,114.373 
			185.127,193.854 63.182,74.631 		"/>
		<circle fill="#FF4081" cx="400.525" cy="193.854" r="3.052"/>
		<circle fill="#FF4081" cx="358.412" cy="154.711" r="3.052"/>
		<path fill="#FF4081" d="M440.095,154.363c0-1.687,1.367-3.052,3.051-3.052c1.688,0,3.053,1.365,3.053,3.052
			c0,1.685-1.364,3.052-3.053,3.052C441.462,157.415,440.095,156.048,440.095,154.363z"/>
		<circle fill="#FF4081" cx="657.994" cy="114.372" r="3.052"/>
		<circle fill="#FF4081" cx="184.668" cy="193.854" r="3.052"/>
		<circle fill="#FF4081" cx="528.464" cy="233.597" r="3.052"/>
		<circle fill="#FF4081" cx="743.973" cy="193.856" r="3.052"/>
		<circle fill="#FF4081" cx="271.104" cy="114.373" r="3.052"/>
		<circle fill="#FF4081" cx="63.182" cy="75.058" r="3.052"/>
	</g>
	<g>
		<polyline fill="none" stroke="#FB8C00" stroke-linecap="round" stroke-linejoin="round" stroke-miterlimit="10" points="
			68.065,185.068 148.617,60.569 187.641,88.642 348.357,110.206 440.985,37.379 525.529,180.187 743.913,207.069 		"/>
		<circle fill="#FB8C00" cx="68.065" cy="184.51" r="3.052"/>
		<circle fill="#FB8C00" cx="148.617" cy="60.569" r="3.052"/>
		<circle fill="#FB8C00" cx="187.641" cy="88.642" r="3.051"/>
		<circle fill="#FB8C00" cx="440.985" cy="37.378" r="3.052"/>
		<circle fill="#FB8C00" cx="347.912" cy="109.597" r="3.052"/>
		<circle fill="#FB8C00" cx="525.412" cy="180.187" r="3.052"/>
		<circle fill="#FB8C00" cx="743.913" cy="207.069" r="3.052"/>
	</g>
	<g>
		<g>
			<path fill="#546E7A" d="M619.508,7.091c0.058,0.137,0.114,0.275,0.17,0.414c0.056-0.143,0.113-0.284,0.173-0.423
				c0.061-0.139,0.123-0.272,0.191-0.399l2.551-4.775c0.031-0.06,0.064-0.107,0.099-0.143c0.034-0.036,0.071-0.062,0.113-0.077
				c0.042-0.016,0.089-0.026,0.14-0.03c0.052-0.004,0.113-0.006,0.186-0.006h1.209v8.62h-1.412V4.703
				c0-0.103,0.003-0.216,0.009-0.34c0.007-0.123,0.015-0.248,0.026-0.375l-2.604,4.888c-0.06,0.111-0.138,0.198-0.232,0.259
				c-0.095,0.062-0.206,0.093-0.334,0.093h-0.22c-0.128,0-0.239-0.031-0.334-0.093c-0.096-0.062-0.174-0.148-0.232-0.259
				l-2.642-4.906c0.017,0.131,0.026,0.259,0.033,0.384c0.006,0.125,0.009,0.241,0.009,0.349v5.568h-1.413v-8.62h1.21
				c0.072,0,0.133,0.002,0.186,0.006c0.051,0.004,0.098,0.014,0.14,0.03c0.042,0.016,0.081,0.042,0.116,0.077
				c0.035,0.036,0.07,0.083,0.102,0.143l2.575,4.787C619.388,6.821,619.45,6.954,619.508,7.091z"/>
			<path fill="#546E7A" d="M630.312,10.271h-0.661c-0.14,0-0.249-0.021-0.328-0.062c-0.08-0.042-0.139-0.126-0.18-0.253
				l-0.131-0.435c-0.154,0.139-0.307,0.261-0.455,0.367c-0.149,0.105-0.304,0.193-0.463,0.265c-0.158,0.071-0.328,0.125-0.506,0.161
				c-0.18,0.036-0.378,0.054-0.597,0.054c-0.259,0-0.497-0.035-0.716-0.104s-0.406-0.174-0.562-0.314
				c-0.157-0.14-0.279-0.313-0.367-0.521c-0.088-0.207-0.131-0.448-0.131-0.724c0-0.231,0.061-0.459,0.182-0.685
				c0.121-0.225,0.322-0.428,0.605-0.61c0.281-0.181,0.657-0.332,1.127-0.452c0.469-0.12,1.051-0.179,1.746-0.179v-0.36
				c0-0.413-0.086-0.718-0.26-0.916c-0.172-0.198-0.424-0.297-0.754-0.297c-0.238,0-0.438,0.028-0.596,0.083
				c-0.159,0.056-0.297,0.118-0.414,0.188c-0.117,0.07-0.227,0.132-0.325,0.188c-0.1,0.056-0.209,0.083-0.328,0.083
				c-0.099,0-0.185-0.026-0.257-0.078c-0.07-0.052-0.129-0.115-0.172-0.191l-0.269-0.471c0.704-0.644,1.552-0.966,2.546-0.966
				c0.357,0,0.676,0.059,0.956,0.176s0.518,0.28,0.712,0.489c0.195,0.209,0.344,0.458,0.445,0.748
				c0.101,0.291,0.151,0.608,0.151,0.954V10.271z M627.451,9.353c0.151,0,0.29-0.014,0.417-0.041s0.248-0.068,0.361-0.124
				c0.113-0.055,0.223-0.122,0.328-0.202c0.104-0.08,0.211-0.175,0.318-0.285V7.678c-0.43,0-0.788,0.027-1.076,0.081
				c-0.288,0.054-0.52,0.123-0.694,0.207c-0.175,0.084-0.3,0.183-0.372,0.294c-0.074,0.112-0.111,0.234-0.111,0.366
				c0,0.26,0.077,0.446,0.23,0.559C627.005,9.297,627.204,9.353,627.451,9.353z"/>
			<path fill="#546E7A" d="M631.284,12.268V4.155h0.9c0.096,0,0.177,0.022,0.244,0.065c0.068,0.044,0.111,0.111,0.131,0.203
				l0.119,0.566c0.247-0.282,0.53-0.511,0.85-0.686c0.32-0.175,0.695-0.262,1.124-0.262c0.334,0,0.64,0.07,0.915,0.208
				c0.276,0.139,0.515,0.341,0.715,0.605c0.201,0.264,0.356,0.59,0.466,0.978c0.108,0.387,0.163,0.832,0.163,1.332
				c0,0.457-0.061,0.88-0.184,1.27s-0.3,0.727-0.528,1.013s-0.505,0.51-0.829,0.671c-0.323,0.161-0.686,0.241-1.088,0.241
				c-0.346,0-0.639-0.053-0.879-0.158c-0.24-0.105-0.455-0.251-0.646-0.438v2.504H631.284z M634.146,5.204
				c-0.306,0-0.566,0.064-0.783,0.194c-0.217,0.129-0.418,0.311-0.605,0.545v2.742c0.167,0.207,0.349,0.351,0.545,0.432
				c0.197,0.082,0.408,0.122,0.635,0.122c0.223,0,0.425-0.042,0.605-0.125c0.182-0.083,0.334-0.211,0.459-0.382
				s0.222-0.386,0.289-0.646c0.068-0.26,0.102-0.567,0.102-0.921c0-0.357-0.029-0.661-0.086-0.909
				c-0.059-0.249-0.141-0.45-0.248-0.605c-0.107-0.155-0.237-0.268-0.391-0.34C634.515,5.24,634.341,5.204,634.146,5.204z"/>
			<path fill="#546E7A" d="M639.702,5.836l-2.748-4.185h1.598c0.11,0,0.191,0.015,0.24,0.045c0.051,0.03,0.095,0.079,0.135,0.146
				l1.961,3.166c0.02-0.052,0.042-0.103,0.066-0.152c0.023-0.05,0.051-0.101,0.083-0.152l1.794-2.832
				c0.088-0.147,0.201-0.221,0.34-0.221h1.538l-2.778,4.12l2.855,4.5h-1.604c-0.107,0-0.193-0.028-0.259-0.083
				s-0.12-0.119-0.164-0.191l-1.997-3.302c-0.016,0.048-0.033,0.092-0.054,0.134c-0.021,0.042-0.04,0.08-0.06,0.116l-1.914,3.052
				c-0.043,0.068-0.098,0.13-0.16,0.188c-0.064,0.058-0.144,0.086-0.238,0.086h-1.502L639.702,5.836z"/>
		</g>
	</g>
	<g>
		<g>
			<path fill="#546E7A" d="M616.799,32.36h-1.61v-8.62h1.61V32.36z"/>
			<path fill="#546E7A" d="M618.176,32.36v-6.116h0.899c0.191,0,0.316,0.089,0.376,0.268l0.102,0.483
				c0.123-0.127,0.253-0.242,0.39-0.346c0.138-0.103,0.283-0.192,0.436-0.268c0.153-0.076,0.317-0.133,0.492-0.173
				s0.365-0.06,0.572-0.06c0.334,0,0.63,0.057,0.889,0.17c0.258,0.113,0.473,0.272,0.646,0.477c0.173,0.205,0.304,0.449,0.393,0.733
				c0.09,0.284,0.135,0.597,0.135,0.939v3.893h-1.473v-3.893c0-0.374-0.086-0.663-0.26-0.868c-0.172-0.205-0.432-0.307-0.777-0.307
				c-0.254,0-0.492,0.058-0.715,0.173s-0.434,0.272-0.633,0.471v4.423H618.176z"/>
			<path fill="#546E7A" d="M628.107,27.436c-0.04,0.063-0.081,0.108-0.126,0.134c-0.043,0.026-0.099,0.039-0.166,0.039
				c-0.072,0-0.148-0.02-0.23-0.06c-0.081-0.04-0.176-0.084-0.283-0.134c-0.106-0.05-0.229-0.094-0.365-0.134
				c-0.138-0.04-0.3-0.06-0.486-0.06c-0.291,0-0.52,0.062-0.686,0.185c-0.167,0.123-0.25,0.284-0.25,0.483
				c0,0.131,0.042,0.241,0.127,0.331c0.086,0.089,0.199,0.168,0.34,0.235c0.142,0.068,0.302,0.128,0.48,0.182
				s0.361,0.112,0.549,0.176c0.187,0.063,0.369,0.136,0.548,0.218c0.179,0.081,0.339,0.185,0.479,0.31
				c0.142,0.125,0.255,0.275,0.34,0.45c0.086,0.175,0.129,0.386,0.129,0.632c0,0.294-0.054,0.565-0.161,0.814
				c-0.107,0.248-0.265,0.463-0.472,0.644c-0.206,0.181-0.461,0.322-0.766,0.423c-0.304,0.102-0.652,0.152-1.046,0.152
				c-0.21,0-0.417-0.019-0.617-0.057c-0.2-0.038-0.394-0.09-0.578-0.158s-0.355-0.147-0.513-0.239
				c-0.156-0.091-0.295-0.19-0.414-0.298l0.34-0.561c0.043-0.067,0.096-0.119,0.154-0.155c0.061-0.036,0.136-0.054,0.227-0.054
				c0.092,0,0.178,0.026,0.26,0.078s0.176,0.107,0.283,0.167s0.233,0.115,0.379,0.167c0.145,0.051,0.328,0.077,0.551,0.077
				c0.176,0,0.325-0.021,0.45-0.062c0.126-0.042,0.229-0.096,0.31-0.164c0.082-0.067,0.142-0.146,0.18-0.235
				c0.037-0.089,0.057-0.182,0.057-0.277c0-0.143-0.043-0.26-0.129-0.352c-0.085-0.091-0.198-0.171-0.34-0.238
				c-0.141-0.068-0.302-0.128-0.482-0.182c-0.181-0.053-0.365-0.112-0.555-0.176c-0.188-0.063-0.373-0.138-0.555-0.224
				c-0.18-0.085-0.342-0.193-0.482-0.325s-0.254-0.292-0.34-0.483s-0.128-0.421-0.128-0.691c0-0.25,0.05-0.489,0.149-0.715
				s0.245-0.424,0.438-0.593c0.193-0.169,0.434-0.304,0.722-0.405s0.62-0.152,0.999-0.152c0.42,0,0.805,0.069,1.15,0.208
				s0.633,0.322,0.863,0.548L628.107,27.436z"/>
			<path fill="#546E7A" d="M631.219,32.455c-0.528,0-0.937-0.15-1.222-0.45c-0.287-0.3-0.43-0.714-0.43-1.243v-3.416h-0.62
				c-0.079,0-0.147-0.026-0.206-0.078c-0.057-0.052-0.086-0.129-0.086-0.232v-0.584l0.984-0.161l0.309-1.669
				c0.017-0.079,0.053-0.141,0.111-0.185c0.057-0.044,0.13-0.065,0.217-0.065h0.764v1.925h1.609v1.049h-1.609v3.314
				c0,0.19,0.047,0.339,0.143,0.447s0.223,0.161,0.382,0.161c0.091,0,0.168-0.011,0.229-0.033s0.115-0.045,0.161-0.069
				s0.087-0.046,0.122-0.068s0.071-0.033,0.107-0.033c0.043,0,0.079,0.011,0.107,0.033c0.027,0.022,0.057,0.055,0.089,0.098
				l0.441,0.715c-0.215,0.179-0.461,0.314-0.739,0.406C631.805,32.41,631.517,32.455,631.219,32.455z"/>
			<path fill="#546E7A" d="M638.14,32.36h-0.662c-0.139,0-0.248-0.021-0.327-0.062c-0.079-0.042-0.14-0.126-0.179-0.253
				l-0.131-0.435c-0.156,0.139-0.308,0.261-0.457,0.367c-0.148,0.105-0.303,0.193-0.461,0.265c-0.16,0.071-0.328,0.125-0.508,0.161
				c-0.178,0.036-0.377,0.054-0.596,0.054c-0.258,0-0.496-0.035-0.715-0.104s-0.406-0.174-0.564-0.314
				c-0.156-0.14-0.279-0.313-0.366-0.521c-0.087-0.207-0.131-0.448-0.131-0.724c0-0.231,0.061-0.459,0.182-0.685
				c0.121-0.225,0.323-0.428,0.604-0.61c0.283-0.181,0.658-0.332,1.127-0.452s1.052-0.179,1.747-0.179v-0.36
				c0-0.413-0.087-0.718-0.259-0.916c-0.174-0.198-0.425-0.297-0.755-0.297c-0.238,0-0.437,0.028-0.596,0.083
				s-0.298,0.118-0.415,0.188c-0.117,0.07-0.225,0.132-0.324,0.188s-0.209,0.083-0.328,0.083c-0.1,0-0.185-0.026-0.256-0.078
				c-0.072-0.052-0.129-0.115-0.174-0.191l-0.268-0.471c0.703-0.644,1.552-0.966,2.545-0.966c0.357,0,0.678,0.059,0.957,0.176
				c0.28,0.117,0.518,0.28,0.713,0.489c0.194,0.209,0.342,0.458,0.443,0.748c0.102,0.291,0.152,0.608,0.152,0.954V32.36z
				 M635.278,31.442c0.15,0,0.29-0.014,0.418-0.041c0.127-0.027,0.246-0.068,0.359-0.124c0.113-0.055,0.223-0.122,0.328-0.202
				s0.212-0.175,0.319-0.285v-1.024c-0.429,0-0.788,0.027-1.076,0.081c-0.288,0.054-0.52,0.123-0.694,0.207
				c-0.175,0.084-0.299,0.183-0.373,0.294c-0.073,0.112-0.109,0.234-0.109,0.366c0,0.26,0.076,0.446,0.229,0.559
				C634.832,31.386,635.032,31.442,635.278,31.442z"/>
			<path fill="#546E7A" d="M641.263,27.925l-2.748-4.185h1.598c0.111,0,0.191,0.015,0.242,0.045c0.049,0.03,0.094,0.079,0.134,0.146
				l1.961,3.166c0.021-0.052,0.042-0.103,0.065-0.152c0.023-0.05,0.052-0.101,0.084-0.152l1.794-2.832
				c0.087-0.147,0.2-0.221,0.34-0.221h1.538l-2.777,4.12l2.855,4.5h-1.604c-0.107,0-0.194-0.028-0.26-0.083
				c-0.066-0.056-0.121-0.119-0.164-0.191l-1.997-3.302c-0.017,0.048-0.034,0.092-0.054,0.134c-0.02,0.042-0.039,0.08-0.06,0.116
				l-1.913,3.052c-0.045,0.068-0.098,0.13-0.162,0.188c-0.062,0.058-0.143,0.086-0.238,0.086h-1.502L641.263,27.925z"/>
		</g>
	</g>
	<rect x="602.964" y="23.71" fill="#8E24AA" width="7" height="7"/>
	<rect x="602.964" y="2.71" fill="#FF4081" width="7" height="7"/>
	<g>
		<g>
			<path fill="#546E7A" d="M675.569,10.271h-1.24c-0.139,0-0.254-0.035-0.343-0.104c-0.089-0.069-0.153-0.156-0.194-0.259
				l-0.643-1.758h-3.571l-0.644,1.758c-0.032,0.092-0.095,0.175-0.188,0.25c-0.094,0.076-0.209,0.113-0.344,0.113h-1.246l3.387-8.62
				h1.639L675.569,10.271z M669.989,7.016h2.748l-1.049-2.867c-0.048-0.127-0.101-0.277-0.158-0.45s-0.114-0.361-0.17-0.563
				c-0.056,0.203-0.11,0.392-0.164,0.566c-0.053,0.175-0.105,0.328-0.158,0.459L669.989,7.016z"/>
			<path fill="#546E7A" d="M675.897,12.268V4.155h0.899c0.095,0,0.177,0.022,0.245,0.065c0.066,0.044,0.11,0.111,0.131,0.203
				l0.119,0.566c0.246-0.282,0.529-0.511,0.85-0.686c0.319-0.175,0.693-0.262,1.123-0.262c0.334,0,0.639,0.07,0.915,0.208
				c0.276,0.139,0.515,0.341,0.716,0.605c0.2,0.264,0.355,0.59,0.465,0.978c0.109,0.387,0.164,0.832,0.164,1.332
				c0,0.457-0.062,0.88-0.186,1.27s-0.299,0.727-0.527,1.013s-0.504,0.51-0.828,0.671c-0.324,0.161-0.688,0.241-1.088,0.241
				c-0.346,0-0.639-0.053-0.879-0.158c-0.241-0.105-0.457-0.251-0.647-0.438v2.504H675.897z M678.759,5.204
				c-0.307,0-0.568,0.064-0.785,0.194c-0.216,0.129-0.418,0.311-0.604,0.545v2.742c0.167,0.207,0.349,0.351,0.546,0.432
				c0.196,0.082,0.408,0.122,0.635,0.122c0.223,0,0.424-0.042,0.605-0.125c0.18-0.083,0.333-0.211,0.459-0.382
				c0.125-0.171,0.221-0.386,0.289-0.646c0.066-0.26,0.101-0.567,0.101-0.921c0-0.357-0.028-0.661-0.087-0.909
				c-0.057-0.249-0.14-0.45-0.246-0.605c-0.107-0.155-0.238-0.268-0.391-0.34C679.126,5.24,678.952,5.204,678.759,5.204z"/>
			<path fill="#546E7A" d="M682.162,12.268V4.155h0.899c0.096,0,0.178,0.022,0.245,0.065c0.067,0.044,0.11,0.111,0.131,0.203
				l0.119,0.566c0.247-0.282,0.53-0.511,0.85-0.686s0.694-0.262,1.124-0.262c0.334,0,0.639,0.07,0.914,0.208
				c0.277,0.139,0.516,0.341,0.716,0.605c0.2,0.264,0.356,0.59,0.466,0.978c0.108,0.387,0.163,0.832,0.163,1.332
				c0,0.457-0.062,0.88-0.185,1.27s-0.299,0.727-0.527,1.013s-0.505,0.51-0.829,0.671c-0.323,0.161-0.687,0.241-1.088,0.241
				c-0.346,0-0.639-0.053-0.879-0.158c-0.241-0.105-0.456-0.251-0.647-0.438v2.504H682.162z M685.023,5.204
				c-0.306,0-0.567,0.064-0.784,0.194c-0.217,0.129-0.418,0.311-0.605,0.545v2.742c0.168,0.207,0.35,0.351,0.546,0.432
				s0.408,0.122,0.635,0.122c0.223,0,0.425-0.042,0.605-0.125c0.181-0.083,0.333-0.211,0.459-0.382
				c0.125-0.171,0.222-0.386,0.289-0.646s0.101-0.567,0.101-0.921c0-0.357-0.028-0.661-0.086-0.909
				c-0.058-0.249-0.141-0.45-0.247-0.605c-0.107-0.155-0.237-0.268-0.391-0.34C685.392,5.24,685.218,5.204,685.023,5.204z"/>
			<path fill="#546E7A" d="M690.579,5.836l-2.748-4.185h1.598c0.111,0,0.191,0.015,0.241,0.045s0.095,0.079,0.134,0.146l1.961,3.166
				c0.021-0.052,0.043-0.103,0.066-0.152c0.023-0.05,0.051-0.101,0.084-0.152l1.793-2.832c0.088-0.147,0.201-0.221,0.34-0.221h1.539
				l-2.778,4.12l2.855,4.5h-1.604c-0.107,0-0.194-0.028-0.259-0.083c-0.066-0.056-0.121-0.119-0.164-0.191l-1.998-3.302
				c-0.016,0.048-0.033,0.092-0.053,0.134c-0.021,0.042-0.04,0.08-0.061,0.116l-1.913,3.052c-0.044,0.068-0.098,0.13-0.161,0.188
				s-0.143,0.086-0.238,0.086h-1.502L690.579,5.836z"/>
		</g>
	</g>
	<g>
		<g>
			<path fill="#546E7A" d="M673.612,25.308c-0.044,0.087-0.094,0.149-0.152,0.185c-0.057,0.036-0.126,0.054-0.205,0.054
				c-0.08,0-0.169-0.031-0.269-0.093c-0.099-0.062-0.217-0.13-0.352-0.206c-0.136-0.075-0.293-0.144-0.474-0.206
				c-0.182-0.062-0.395-0.092-0.641-0.092c-0.223,0-0.417,0.027-0.582,0.081c-0.164,0.053-0.304,0.128-0.417,0.223
				c-0.113,0.096-0.198,0.21-0.253,0.343c-0.057,0.133-0.084,0.279-0.084,0.438c0,0.203,0.057,0.372,0.17,0.506
				c0.113,0.135,0.264,0.25,0.45,0.346c0.187,0.095,0.399,0.181,0.638,0.256c0.238,0.075,0.482,0.156,0.73,0.241
				s0.492,0.185,0.73,0.298s0.451,0.256,0.638,0.429s0.337,0.385,0.45,0.635c0.113,0.25,0.17,0.554,0.17,0.912
				c0,0.389-0.066,0.754-0.2,1.094s-0.327,0.636-0.584,0.888s-0.569,0.451-0.938,0.596c-0.37,0.145-0.793,0.217-1.27,0.217
				c-0.275,0-0.545-0.027-0.812-0.08c-0.267-0.054-0.521-0.13-0.767-0.23c-0.244-0.099-0.473-0.218-0.686-0.357
				c-0.212-0.139-0.402-0.294-0.568-0.465l0.465-0.769c0.043-0.056,0.096-0.103,0.158-0.14c0.061-0.038,0.13-0.057,0.205-0.057
				c0.1,0,0.207,0.041,0.322,0.122s0.251,0.172,0.408,0.271c0.156,0.099,0.342,0.189,0.555,0.271s0.468,0.122,0.766,0.122
				c0.457,0,0.811-0.108,1.061-0.325c0.251-0.216,0.377-0.527,0.377-0.933c0-0.226-0.057-0.411-0.17-0.554s-0.264-0.263-0.451-0.361
				c-0.187-0.097-0.398-0.18-0.638-0.247c-0.238-0.068-0.48-0.141-0.728-0.221c-0.246-0.08-0.488-0.175-0.727-0.286
				s-0.451-0.256-0.639-0.435c-0.186-0.179-0.336-0.402-0.449-0.671c-0.113-0.268-0.17-0.599-0.17-0.992
				c0-0.314,0.062-0.62,0.188-0.918c0.125-0.298,0.309-0.562,0.549-0.793s0.535-0.416,0.885-0.555
				c0.35-0.139,0.749-0.208,1.198-0.208c0.509,0,0.978,0.08,1.407,0.238c0.429,0.159,0.795,0.382,1.097,0.668L673.612,25.308z"/>
			<path fill="#546E7A" d="M674.829,34.357v-8.113h0.899c0.095,0,0.177,0.022,0.245,0.065c0.066,0.044,0.11,0.111,0.131,0.203
				l0.119,0.566c0.246-0.282,0.529-0.511,0.85-0.686c0.319-0.175,0.693-0.262,1.123-0.262c0.334,0,0.639,0.07,0.915,0.208
				c0.276,0.139,0.515,0.341,0.716,0.605c0.2,0.264,0.355,0.59,0.465,0.978c0.109,0.387,0.164,0.832,0.164,1.332
				c0,0.457-0.062,0.88-0.186,1.27s-0.299,0.727-0.527,1.013s-0.504,0.51-0.828,0.671c-0.324,0.161-0.688,0.241-1.088,0.241
				c-0.346,0-0.639-0.053-0.879-0.158c-0.241-0.105-0.457-0.251-0.647-0.438v2.504H674.829z M677.69,27.293
				c-0.307,0-0.568,0.064-0.785,0.194c-0.216,0.129-0.418,0.311-0.604,0.545v2.742c0.167,0.207,0.349,0.351,0.546,0.432
				c0.196,0.082,0.408,0.122,0.635,0.122c0.223,0,0.424-0.042,0.605-0.125c0.18-0.083,0.333-0.211,0.459-0.382
				c0.125-0.171,0.221-0.386,0.289-0.646c0.066-0.26,0.101-0.567,0.101-0.921c0-0.357-0.028-0.661-0.087-0.909
				c-0.057-0.249-0.14-0.45-0.246-0.605c-0.107-0.155-0.238-0.268-0.391-0.34C678.058,27.329,677.884,27.293,677.69,27.293z"/>
			<path fill="#546E7A" d="M683.704,26.148c0.457,0,0.871,0.073,1.243,0.22c0.372,0.147,0.688,0.356,0.951,0.626
				c0.263,0.271,0.465,0.6,0.608,0.99c0.143,0.39,0.214,0.825,0.214,1.306c0,0.485-0.071,0.922-0.214,1.311
				c-0.144,0.39-0.346,0.722-0.608,0.996c-0.263,0.274-0.579,0.485-0.951,0.632s-0.786,0.221-1.243,0.221s-0.872-0.074-1.246-0.221
				c-0.373-0.147-0.691-0.357-0.956-0.632c-0.265-0.274-0.47-0.606-0.614-0.996c-0.145-0.389-0.217-0.826-0.217-1.311
				c0-0.481,0.072-0.916,0.217-1.306s0.35-0.719,0.614-0.99c0.265-0.27,0.583-0.479,0.956-0.626
				C682.832,26.222,683.247,26.148,683.704,26.148z M683.704,31.317c0.51,0,0.886-0.171,1.13-0.513
				c0.245-0.342,0.366-0.843,0.366-1.502s-0.121-1.163-0.366-1.508c-0.244-0.346-0.62-0.519-1.13-0.519
				c-0.516,0-0.898,0.174-1.145,0.521c-0.246,0.348-0.369,0.85-0.369,1.505s0.123,1.156,0.369,1.499
				C682.806,31.145,683.188,31.317,683.704,31.317z"/>
			<path fill="#546E7A" d="M687.395,32.36v-6.116h0.864c0.15,0,0.256,0.028,0.316,0.083c0.059,0.056,0.099,0.151,0.119,0.286
				l0.089,0.739c0.219-0.377,0.476-0.676,0.769-0.894c0.295-0.219,0.625-0.328,0.99-0.328c0.302,0,0.553,0.07,0.751,0.208
				l-0.19,1.103c-0.012,0.071-0.038,0.122-0.078,0.152c-0.039,0.03-0.094,0.045-0.16,0.045c-0.061,0-0.142-0.014-0.245-0.042
				c-0.103-0.027-0.24-0.042-0.411-0.042c-0.307,0-0.568,0.084-0.787,0.253s-0.403,0.416-0.555,0.742v3.809H687.395z"/>
			<path fill="#546E7A" d="M690.626,31.549c0-0.124,0.022-0.241,0.068-0.352c0.045-0.111,0.109-0.207,0.19-0.286
				c0.081-0.079,0.178-0.143,0.289-0.19c0.111-0.048,0.23-0.072,0.358-0.072c0.123,0,0.24,0.024,0.352,0.072
				c0.111,0.047,0.206,0.111,0.285,0.19c0.08,0.08,0.144,0.175,0.191,0.286c0.048,0.111,0.071,0.229,0.071,0.352
				c0,0.127-0.023,0.245-0.071,0.354s-0.111,0.204-0.191,0.283c-0.079,0.08-0.174,0.142-0.285,0.188
				c-0.111,0.045-0.229,0.068-0.352,0.068c-0.128,0-0.247-0.023-0.358-0.068c-0.111-0.046-0.208-0.108-0.289-0.188
				s-0.146-0.174-0.19-0.283C690.648,31.794,690.626,31.676,690.626,31.549z"/>
			<path fill="#546E7A" d="M692.831,31.549c0-0.124,0.023-0.241,0.068-0.352c0.046-0.111,0.109-0.207,0.191-0.286
				c0.081-0.079,0.178-0.143,0.289-0.19c0.111-0.048,0.23-0.072,0.357-0.072c0.123,0,0.24,0.024,0.352,0.072
				c0.111,0.047,0.207,0.111,0.286,0.19c0.079,0.08,0.144,0.175,0.19,0.286c0.049,0.111,0.072,0.229,0.072,0.352
				c0,0.127-0.023,0.245-0.072,0.354c-0.047,0.109-0.111,0.204-0.19,0.283s-0.175,0.142-0.286,0.188
				c-0.111,0.045-0.229,0.068-0.352,0.068c-0.127,0-0.246-0.023-0.357-0.068c-0.111-0.046-0.208-0.108-0.289-0.188
				c-0.082-0.08-0.146-0.174-0.191-0.283C692.854,31.794,692.831,31.676,692.831,31.549z"/>
		</g>
	</g>
	<rect x="655.964" y="23.71" fill="#FB8C00" width="7" height="7"/>
	<rect x="655.964" y="2.71" fill="#E53935" width="7" height="7"/>
	<g>
		<g>
			<path fill="#546E7A" d="M720.597,8.948h3.451v1.323h-5.056v-8.62h1.604V8.948z"/>
			<path fill="#546E7A" d="M726.384,2.373c0,0.127-0.025,0.246-0.077,0.357s-0.12,0.208-0.206,0.292
				c-0.085,0.083-0.186,0.15-0.301,0.2c-0.115,0.05-0.238,0.075-0.369,0.075c-0.127,0-0.248-0.025-0.361-0.075
				c-0.113-0.049-0.211-0.116-0.295-0.2c-0.083-0.083-0.15-0.181-0.199-0.292c-0.05-0.111-0.074-0.23-0.074-0.357
				c0-0.131,0.024-0.254,0.074-0.37c0.049-0.115,0.116-0.215,0.199-0.298c0.084-0.083,0.182-0.15,0.295-0.2
				c0.113-0.049,0.234-0.074,0.361-0.074c0.131,0,0.254,0.025,0.369,0.074c0.115,0.05,0.216,0.116,0.301,0.2
				c0.086,0.083,0.154,0.183,0.206,0.298S726.384,2.241,726.384,2.373z M726.163,4.155v6.116h-1.472V4.155H726.163z"/>
			<path fill="#546E7A" d="M729.466,4.047c0.263,0,0.509,0.027,0.739,0.081s0.441,0.132,0.632,0.235h1.759v0.549
				c0,0.091-0.024,0.163-0.071,0.214c-0.048,0.052-0.129,0.087-0.244,0.107l-0.549,0.101c0.039,0.104,0.07,0.213,0.092,0.328
				c0.022,0.115,0.033,0.236,0.033,0.364c0,0.302-0.061,0.575-0.182,0.819c-0.121,0.245-0.288,0.452-0.501,0.623
				c-0.212,0.171-0.465,0.303-0.757,0.396s-0.609,0.14-0.951,0.14c-0.23,0-0.455-0.022-0.674-0.066
				c-0.19,0.116-0.285,0.247-0.285,0.391c0,0.124,0.057,0.215,0.17,0.273c0.113,0.058,0.262,0.099,0.447,0.123
				c0.184,0.024,0.394,0.036,0.629,0.036c0.234,0,0.475,0.01,0.721,0.03c0.246,0.02,0.486,0.055,0.721,0.105
				s0.445,0.128,0.629,0.236c0.186,0.107,0.334,0.254,0.447,0.439s0.17,0.424,0.17,0.715c0,0.271-0.066,0.534-0.199,0.789
				c-0.133,0.255-0.326,0.482-0.578,0.682c-0.253,0.199-0.562,0.359-0.928,0.481c-0.365,0.122-0.783,0.182-1.252,0.182
				c-0.465,0-0.867-0.044-1.209-0.134c-0.342-0.09-0.625-0.209-0.85-0.358s-0.393-0.321-0.504-0.516s-0.167-0.397-0.167-0.608
				c0-0.286,0.087-0.527,0.263-0.721c0.174-0.195,0.416-0.35,0.727-0.465c-0.15-0.083-0.271-0.194-0.363-0.333
				s-0.137-0.32-0.137-0.542c0-0.092,0.016-0.186,0.047-0.283c0.031-0.098,0.08-0.194,0.146-0.289
				c0.065-0.096,0.148-0.186,0.247-0.271c0.1-0.085,0.217-0.162,0.353-0.229c-0.311-0.167-0.555-0.389-0.73-0.667
				c-0.178-0.278-0.266-0.604-0.266-0.978c0-0.302,0.061-0.576,0.182-0.82c0.121-0.245,0.29-0.453,0.507-0.626
				c0.216-0.173,0.473-0.305,0.769-0.396C728.794,4.093,729.116,4.047,729.466,4.047z M731.081,10.528
				c0-0.122-0.035-0.221-0.107-0.298c-0.07-0.077-0.168-0.137-0.291-0.179c-0.123-0.043-0.268-0.074-0.433-0.095
				c-0.165-0.02-0.34-0.03-0.524-0.03c-0.186,0-0.375,0-0.572,0s-0.387-0.022-0.569-0.065c-0.167,0.091-0.302,0.2-0.402,0.325
				c-0.102,0.125-0.152,0.269-0.152,0.432c0,0.107,0.026,0.208,0.081,0.301c0.053,0.093,0.139,0.174,0.256,0.241
				s0.27,0.12,0.456,0.158c0.187,0.038,0.415,0.057,0.686,0.057c0.274,0,0.511-0.021,0.71-0.064
				c0.198-0.043,0.361-0.102,0.491-0.177c0.129-0.075,0.224-0.164,0.283-0.268S731.081,10.649,731.081,10.528z M729.466,7.064
				c0.184,0,0.342-0.025,0.477-0.075c0.136-0.049,0.248-0.118,0.338-0.206c0.089-0.087,0.156-0.193,0.202-0.316
				s0.069-0.258,0.069-0.405c0-0.302-0.092-0.542-0.271-0.718c-0.182-0.177-0.453-0.266-0.814-0.266s-0.633,0.089-0.813,0.266
				s-0.271,0.416-0.271,0.718c0,0.143,0.021,0.276,0.068,0.399c0.045,0.123,0.113,0.229,0.202,0.319s0.202,0.159,0.34,0.208
				C729.13,7.039,729.287,7.064,729.466,7.064z"/>
			<path fill="#546E7A" d="M733.043,10.271V1.413h1.472v3.404c0.238-0.227,0.502-0.409,0.787-0.548
				c0.287-0.139,0.622-0.208,1.008-0.208c0.334,0,0.63,0.057,0.889,0.17c0.258,0.113,0.473,0.272,0.646,0.477
				c0.173,0.205,0.304,0.449,0.393,0.733c0.09,0.284,0.135,0.597,0.135,0.939v3.893h-1.473V6.378c0-0.374-0.086-0.663-0.26-0.868
				c-0.172-0.205-0.432-0.307-0.777-0.307c-0.254,0-0.492,0.058-0.715,0.173s-0.434,0.272-0.633,0.471v4.423H733.043z"/>
			<path fill="#546E7A" d="M738.991,9.46c0-0.124,0.023-0.241,0.069-0.352c0.046-0.111,0.108-0.207,0.19-0.286
				c0.082-0.079,0.178-0.143,0.289-0.19c0.111-0.048,0.23-0.072,0.357-0.072c0.123,0,0.24,0.024,0.352,0.072
				c0.111,0.047,0.207,0.111,0.287,0.19c0.079,0.08,0.143,0.175,0.19,0.286c0.048,0.111,0.071,0.229,0.071,0.352
				c0,0.127-0.023,0.245-0.071,0.354s-0.111,0.204-0.19,0.283c-0.08,0.08-0.176,0.142-0.287,0.188
				c-0.111,0.045-0.229,0.068-0.352,0.068c-0.127,0-0.246-0.023-0.357-0.068c-0.111-0.046-0.207-0.108-0.289-0.188
				s-0.145-0.174-0.19-0.283S738.991,9.587,738.991,9.46z"/>
			<path fill="#546E7A" d="M741.197,9.46c0-0.124,0.022-0.241,0.069-0.352c0.045-0.111,0.108-0.207,0.189-0.286
				c0.082-0.079,0.178-0.143,0.289-0.19c0.111-0.048,0.23-0.072,0.358-0.072c0.123,0,0.24,0.024,0.352,0.072
				c0.111,0.047,0.206,0.111,0.286,0.19c0.08,0.08,0.143,0.175,0.191,0.286c0.047,0.111,0.07,0.229,0.07,0.352
				c0,0.127-0.023,0.245-0.07,0.354c-0.049,0.109-0.111,0.204-0.191,0.283s-0.175,0.142-0.286,0.188
				c-0.111,0.045-0.229,0.068-0.352,0.068c-0.128,0-0.247-0.023-0.358-0.068c-0.111-0.046-0.207-0.108-0.289-0.188
				c-0.081-0.08-0.145-0.174-0.189-0.283C741.22,9.706,741.197,9.587,741.197,9.46z"/>
		</g>
	</g>
	<g>
		<g>
			<path fill="#546E7A" d="M723.612,25.308c-0.044,0.087-0.094,0.149-0.152,0.185c-0.057,0.036-0.126,0.054-0.205,0.054
				c-0.08,0-0.169-0.031-0.269-0.093c-0.099-0.062-0.217-0.13-0.352-0.206c-0.136-0.075-0.293-0.144-0.474-0.206
				c-0.182-0.062-0.395-0.092-0.641-0.092c-0.223,0-0.417,0.027-0.582,0.081c-0.164,0.053-0.304,0.128-0.417,0.223
				c-0.113,0.096-0.198,0.21-0.253,0.343c-0.057,0.133-0.084,0.279-0.084,0.438c0,0.203,0.057,0.372,0.17,0.506
				c0.113,0.135,0.264,0.25,0.45,0.346c0.187,0.095,0.399,0.181,0.638,0.256c0.238,0.075,0.482,0.156,0.73,0.241
				s0.492,0.185,0.73,0.298s0.451,0.256,0.638,0.429s0.337,0.385,0.45,0.635c0.113,0.25,0.17,0.554,0.17,0.912
				c0,0.389-0.066,0.754-0.2,1.094s-0.327,0.636-0.584,0.888s-0.569,0.451-0.938,0.596c-0.37,0.145-0.793,0.217-1.27,0.217
				c-0.275,0-0.545-0.027-0.812-0.08c-0.267-0.054-0.521-0.13-0.767-0.23c-0.244-0.099-0.473-0.218-0.686-0.357
				c-0.212-0.139-0.402-0.294-0.568-0.465l0.465-0.769c0.043-0.056,0.096-0.103,0.158-0.14c0.061-0.038,0.13-0.057,0.205-0.057
				c0.1,0,0.207,0.041,0.322,0.122s0.251,0.172,0.408,0.271c0.156,0.099,0.342,0.189,0.555,0.271s0.468,0.122,0.766,0.122
				c0.457,0,0.811-0.108,1.061-0.325c0.251-0.216,0.377-0.527,0.377-0.933c0-0.226-0.057-0.411-0.17-0.554s-0.264-0.263-0.451-0.361
				c-0.187-0.097-0.398-0.18-0.638-0.247c-0.238-0.068-0.48-0.141-0.728-0.221c-0.246-0.08-0.488-0.175-0.727-0.286
				s-0.451-0.256-0.639-0.435c-0.186-0.179-0.336-0.402-0.449-0.671c-0.113-0.268-0.17-0.599-0.17-0.992
				c0-0.314,0.062-0.62,0.188-0.918c0.125-0.298,0.309-0.562,0.549-0.793s0.535-0.416,0.885-0.555
				c0.35-0.139,0.749-0.208,1.198-0.208c0.509,0,0.978,0.08,1.407,0.238c0.429,0.159,0.795,0.382,1.097,0.668L723.612,25.308z"/>
			<path fill="#546E7A" d="M727.356,26.148c0.385,0,0.74,0.062,1.063,0.185c0.323,0.124,0.603,0.303,0.837,0.54
				c0.235,0.236,0.418,0.527,0.549,0.87c0.131,0.344,0.197,0.736,0.197,1.178c0,0.111-0.006,0.204-0.016,0.277
				c-0.01,0.074-0.027,0.131-0.053,0.173c-0.026,0.042-0.061,0.072-0.104,0.09c-0.044,0.018-0.1,0.026-0.167,0.026h-3.779
				c0.043,0.628,0.213,1.089,0.506,1.383c0.295,0.294,0.684,0.441,1.169,0.441c0.238,0,0.444-0.028,0.617-0.083
				s0.323-0.117,0.452-0.185c0.13-0.067,0.243-0.129,0.34-0.185c0.098-0.055,0.192-0.083,0.283-0.083
				c0.061,0,0.111,0.012,0.156,0.036c0.043,0.024,0.08,0.058,0.113,0.101l0.429,0.537c-0.163,0.191-0.346,0.351-0.549,0.48
				c-0.202,0.129-0.414,0.232-0.635,0.31c-0.22,0.077-0.444,0.132-0.673,0.164c-0.229,0.032-0.451,0.048-0.666,0.048
				c-0.425,0-0.82-0.07-1.186-0.211s-0.684-0.35-0.953-0.626c-0.271-0.276-0.483-0.618-0.639-1.025
				c-0.154-0.407-0.232-0.879-0.232-1.416c0-0.417,0.067-0.81,0.203-1.177c0.135-0.368,0.328-0.688,0.581-0.959
				c0.252-0.272,0.56-0.488,0.924-0.647C726.489,26.228,726.899,26.148,727.356,26.148z M727.386,27.204
				c-0.43,0-0.766,0.121-1.008,0.363c-0.242,0.243-0.396,0.586-0.465,1.031h2.766c0-0.19-0.025-0.37-0.076-0.539
				c-0.053-0.169-0.132-0.317-0.239-0.444c-0.107-0.127-0.242-0.228-0.405-0.301C727.795,27.24,727.604,27.204,727.386,27.204z"/>
			<path fill="#546E7A" d="M735.022,27.537c-0.045,0.056-0.087,0.1-0.129,0.131c-0.041,0.032-0.102,0.048-0.182,0.048
				c-0.076,0-0.148-0.023-0.221-0.069c-0.071-0.045-0.156-0.097-0.256-0.155s-0.218-0.109-0.355-0.155
				c-0.137-0.045-0.307-0.068-0.51-0.068c-0.258,0-0.484,0.047-0.68,0.14c-0.194,0.093-0.355,0.228-0.485,0.402
				c-0.129,0.175-0.226,0.387-0.289,0.635c-0.063,0.249-0.095,0.53-0.095,0.844c0,0.326,0.034,0.616,0.104,0.87
				c0.07,0.254,0.17,0.468,0.301,0.641c0.132,0.173,0.291,0.304,0.478,0.394s0.397,0.134,0.632,0.134s0.424-0.029,0.569-0.086
				s0.267-0.121,0.366-0.191c0.1-0.069,0.186-0.133,0.26-0.19c0.073-0.058,0.156-0.086,0.247-0.086c0.12,0,0.209,0.045,0.269,0.137
				l0.424,0.537c-0.164,0.191-0.34,0.351-0.531,0.48c-0.191,0.129-0.389,0.232-0.594,0.31c-0.204,0.077-0.416,0.132-0.635,0.164
				c-0.219,0.032-0.435,0.048-0.649,0.048c-0.378,0-0.733-0.07-1.067-0.211s-0.625-0.347-0.873-0.617
				c-0.248-0.27-0.445-0.601-0.59-0.993c-0.145-0.391-0.218-0.837-0.218-1.338c0-0.449,0.064-0.866,0.194-1.249
				c0.129-0.383,0.318-0.715,0.568-0.996c0.251-0.28,0.561-0.5,0.93-0.659c0.37-0.159,0.795-0.238,1.276-0.238
				c0.457,0,0.857,0.073,1.201,0.22c0.344,0.147,0.653,0.358,0.927,0.632L735.022,27.537z"/>
			<path fill="#546E7A" d="M737.281,26.244v3.887c0,0.374,0.087,0.663,0.259,0.867c0.174,0.205,0.433,0.307,0.778,0.307
				c0.255,0,0.493-0.057,0.716-0.17s0.433-0.269,0.631-0.468v-4.423h1.473v6.116h-0.9c-0.19,0-0.315-0.089-0.375-0.268l-0.102-0.489
				c-0.127,0.127-0.258,0.243-0.393,0.349c-0.136,0.105-0.279,0.195-0.433,0.268c-0.153,0.074-0.318,0.131-0.495,0.173
				c-0.177,0.042-0.367,0.062-0.569,0.062c-0.333,0-0.629-0.057-0.886-0.17c-0.256-0.113-0.471-0.273-0.646-0.479
				c-0.175-0.207-0.307-0.452-0.396-0.736c-0.089-0.284-0.134-0.597-0.134-0.939v-3.887H737.281z"/>
			<path fill="#546E7A" d="M741.883,31.549c0-0.124,0.022-0.241,0.069-0.352c0.045-0.111,0.108-0.207,0.189-0.286
				c0.082-0.079,0.178-0.143,0.289-0.19c0.111-0.048,0.23-0.072,0.358-0.072c0.123,0,0.24,0.024,0.352,0.072
				c0.111,0.047,0.206,0.111,0.286,0.19c0.08,0.08,0.143,0.175,0.191,0.286c0.047,0.111,0.07,0.229,0.07,0.352
				c0,0.127-0.023,0.245-0.07,0.354c-0.049,0.109-0.111,0.204-0.191,0.283s-0.175,0.142-0.286,0.188
				c-0.111,0.045-0.229,0.068-0.352,0.068c-0.128,0-0.247-0.023-0.358-0.068c-0.111-0.046-0.207-0.108-0.289-0.188
				c-0.081-0.08-0.145-0.174-0.189-0.283C741.905,31.794,741.883,31.676,741.883,31.549z"/>
			<path fill="#546E7A" d="M744.089,31.549c0-0.124,0.022-0.241,0.068-0.352c0.045-0.111,0.109-0.207,0.19-0.286
				c0.081-0.079,0.178-0.143,0.289-0.19c0.111-0.048,0.23-0.072,0.358-0.072c0.123,0,0.24,0.024,0.352,0.072
				c0.111,0.047,0.206,0.111,0.285,0.19c0.08,0.08,0.144,0.175,0.191,0.286c0.048,0.111,0.071,0.229,0.071,0.352
				c0,0.127-0.023,0.245-0.071,0.354s-0.111,0.204-0.191,0.283c-0.079,0.08-0.174,0.142-0.285,0.188
				c-0.111,0.045-0.229,0.068-0.352,0.068c-0.128,0-0.247-0.023-0.358-0.068c-0.111-0.046-0.208-0.108-0.289-0.188
				s-0.146-0.174-0.19-0.283C744.111,31.794,744.089,31.676,744.089,31.549z"/>
		</g>
	</g>
	<rect x="705.964" y="23.71" fill="#0091EA" width="7" height="7"/>
	<rect x="705.964" y="2.71" fill="#43A047" width="7" height="7"/>
	<g>
		<path fill="#546E7A" d="M366.509,270.558h-1.24c-0.139,0-0.253-0.035-0.343-0.104s-0.154-0.155-0.194-0.259l-0.644-1.759h-3.571
			l-0.644,1.759c-0.032,0.092-0.094,0.175-0.188,0.25c-0.093,0.076-0.208,0.113-0.343,0.113h-1.246l3.386-8.62h1.639
			L366.509,270.558z M360.929,267.303h2.748l-1.049-2.867c-0.048-0.128-0.101-0.277-0.158-0.45s-0.114-0.361-0.17-0.563
			c-0.056,0.202-0.11,0.392-0.164,0.566c-0.054,0.175-0.106,0.328-0.158,0.459L360.929,267.303z"/>
		<path fill="#546E7A" d="M374.497,270.558h-1.24c-0.139,0-0.253-0.035-0.343-0.104s-0.154-0.155-0.194-0.259l-0.644-1.759h-3.571
			l-0.644,1.759c-0.032,0.092-0.094,0.175-0.188,0.25c-0.093,0.076-0.208,0.113-0.343,0.113h-1.246l3.386-8.62h1.639
			L374.497,270.558z M368.917,267.303h2.748l-1.049-2.867c-0.048-0.128-0.101-0.277-0.158-0.45s-0.114-0.361-0.17-0.563
			c-0.056,0.202-0.11,0.392-0.164,0.566c-0.054,0.175-0.106,0.328-0.158,0.459L368.917,267.303z"/>
	</g>
	<g>
		<path fill="#546E7A" d="M406.53,270.558v-8.62h2.975c0.564,0,1.046,0.054,1.445,0.161s0.728,0.26,0.984,0.459
			c0.256,0.199,0.443,0.439,0.562,0.721c0.119,0.283,0.179,0.601,0.179,0.955c0,0.202-0.03,0.396-0.089,0.58
			c-0.061,0.186-0.152,0.358-0.277,0.52c-0.125,0.16-0.284,0.307-0.477,0.438c-0.193,0.131-0.423,0.242-0.689,0.334
			c1.185,0.267,1.777,0.906,1.777,1.92c0,0.365-0.07,0.703-0.209,1.014c-0.139,0.31-0.342,0.576-0.608,0.801s-0.594,0.4-0.983,0.527
			c-0.39,0.128-0.834,0.191-1.336,0.191H406.53z M408.134,265.669h1.281c0.545,0,0.958-0.099,1.24-0.297
			c0.282-0.199,0.424-0.516,0.424-0.949c0-0.448-0.128-0.769-0.383-0.959c-0.254-0.191-0.651-0.286-1.191-0.286h-1.371V265.669z
			 M408.134,266.778v2.527h1.627c0.299,0,0.548-0.035,0.748-0.107c0.201-0.071,0.361-0.166,0.483-0.286
			c0.121-0.119,0.208-0.259,0.263-0.417c0.053-0.159,0.08-0.328,0.08-0.507c0-0.187-0.029-0.354-0.09-0.504
			c-0.06-0.149-0.152-0.276-0.279-0.382c-0.128-0.104-0.291-0.186-0.489-0.24c-0.199-0.057-0.439-0.084-0.722-0.084H408.134z"/>
		<path fill="#546E7A" d="M413.82,270.558v-8.62h2.976c0.563,0,1.045,0.054,1.445,0.161c0.398,0.107,0.727,0.26,0.983,0.459
			c0.256,0.199,0.444,0.439,0.563,0.721c0.119,0.283,0.178,0.601,0.178,0.955c0,0.202-0.029,0.396-0.089,0.58
			c-0.06,0.186-0.151,0.358-0.276,0.52c-0.126,0.16-0.285,0.307-0.478,0.438s-0.423,0.242-0.688,0.334
			c1.184,0.267,1.776,0.906,1.776,1.92c0,0.365-0.069,0.703-0.208,1.014c-0.14,0.31-0.342,0.576-0.609,0.801
			c-0.266,0.225-0.594,0.4-0.982,0.527c-0.391,0.128-0.835,0.191-1.336,0.191H413.82z M415.425,265.669h1.281
			c0.544,0,0.957-0.099,1.24-0.297c0.281-0.199,0.423-0.516,0.423-0.949c0-0.448-0.128-0.769-0.382-0.959
			c-0.254-0.191-0.652-0.286-1.191-0.286h-1.371V265.669z M415.425,266.778v2.527h1.627c0.298,0,0.547-0.035,0.748-0.107
			c0.201-0.071,0.361-0.166,0.482-0.286c0.121-0.119,0.209-0.259,0.263-0.417c0.054-0.159,0.081-0.328,0.081-0.507
			c0-0.187-0.03-0.354-0.09-0.504c-0.061-0.149-0.153-0.276-0.28-0.382c-0.128-0.104-0.29-0.186-0.489-0.24
			c-0.199-0.057-0.439-0.084-0.721-0.084H415.425z"/>
	</g>
	<g>
		<path fill="#546E7A" d="M466.808,268.524c0.088,0,0.163,0.034,0.227,0.102l0.633,0.686c-0.351,0.434-0.781,0.766-1.291,0.996
			c-0.511,0.23-1.124,0.346-1.84,0.346c-0.639,0-1.215-0.109-1.725-0.328c-0.512-0.219-0.947-0.522-1.309-0.912
			c-0.362-0.39-0.639-0.854-0.832-1.395c-0.193-0.541-0.289-1.131-0.289-1.771c0-0.646,0.107-1.24,0.322-1.779
			c0.215-0.538,0.516-1.002,0.906-1.392c0.389-0.39,0.855-0.692,1.397-0.909s1.142-0.324,1.798-0.324
			c0.639,0,1.199,0.102,1.678,0.307s0.889,0.477,1.23,0.813l-0.536,0.745c-0.032,0.048-0.073,0.09-0.122,0.125
			c-0.05,0.036-0.119,0.055-0.206,0.055c-0.091,0-0.185-0.037-0.28-0.107c-0.096-0.072-0.217-0.149-0.363-0.232
			c-0.147-0.084-0.333-0.162-0.558-0.232c-0.225-0.072-0.51-0.107-0.855-0.107c-0.405,0-0.778,0.07-1.118,0.211
			s-0.631,0.343-0.875,0.605c-0.245,0.262-0.436,0.581-0.573,0.957c-0.137,0.375-0.206,0.797-0.206,1.266
			c0,0.485,0.069,0.916,0.206,1.294c0.138,0.378,0.323,0.696,0.558,0.954s0.511,0.456,0.828,0.594
			c0.318,0.137,0.66,0.205,1.025,0.205c0.219,0,0.416-0.012,0.594-0.035c0.177-0.024,0.34-0.062,0.488-0.113
			c0.149-0.053,0.291-0.119,0.424-0.2s0.266-0.183,0.396-0.302c0.039-0.035,0.081-0.064,0.125-0.086
			C466.708,268.536,466.757,268.524,466.808,268.524z"/>
		<path fill="#546E7A" d="M474.325,268.524c0.088,0,0.162,0.034,0.227,0.102l0.632,0.686c-0.351,0.434-0.78,0.766-1.29,0.996
			c-0.512,0.23-1.125,0.346-1.84,0.346c-0.64,0-1.215-0.109-1.726-0.328s-0.946-0.522-1.309-0.912s-0.639-0.854-0.831-1.395
			c-0.193-0.541-0.289-1.131-0.289-1.771c0-0.646,0.107-1.24,0.321-1.779c0.215-0.538,0.517-1.002,0.906-1.392
			s0.855-0.692,1.397-0.909c0.543-0.217,1.143-0.324,1.798-0.324c0.64,0,1.199,0.102,1.678,0.307
			c0.479,0.205,0.89,0.477,1.231,0.813l-0.537,0.745c-0.031,0.048-0.072,0.09-0.122,0.125c-0.05,0.036-0.118,0.055-0.206,0.055
			c-0.091,0-0.184-0.037-0.279-0.107c-0.096-0.072-0.217-0.149-0.363-0.232c-0.148-0.084-0.334-0.162-0.559-0.232
			c-0.225-0.072-0.51-0.107-0.855-0.107c-0.404,0-0.777,0.07-1.117,0.211s-0.632,0.343-0.876,0.605
			c-0.245,0.262-0.436,0.581-0.573,0.957c-0.137,0.375-0.205,0.797-0.205,1.266c0,0.485,0.068,0.916,0.205,1.294
			c0.138,0.378,0.324,0.696,0.559,0.954s0.51,0.456,0.828,0.594c0.318,0.137,0.66,0.205,1.025,0.205
			c0.219,0,0.416-0.012,0.594-0.035c0.176-0.024,0.339-0.062,0.488-0.113c0.148-0.053,0.29-0.119,0.424-0.2
			c0.133-0.081,0.265-0.183,0.396-0.302c0.04-0.035,0.081-0.064,0.126-0.086C474.226,268.536,474.273,268.524,474.325,268.524z"/>
	</g>
	<g>
		<path fill="#546E7A" d="M522.64,270.558h-1.24c-0.139,0-0.253-0.035-0.342-0.104c-0.09-0.069-0.154-0.155-0.194-0.259
			l-0.644-1.759h-3.57l-0.645,1.759c-0.031,0.092-0.094,0.175-0.188,0.25c-0.094,0.076-0.208,0.113-0.343,0.113h-1.246l3.386-8.62
			h1.64L522.64,270.558z M517.06,267.303h2.748l-1.049-2.867c-0.047-0.128-0.1-0.277-0.158-0.45
			c-0.057-0.173-0.113-0.361-0.17-0.563c-0.055,0.202-0.109,0.392-0.163,0.566s-0.106,0.328-0.158,0.459L517.06,267.303z"/>
		<path fill="#546E7A" d="M526.706,269.378c0.361,0,0.676-0.033,0.944-0.1c0.269-0.064,0.523-0.155,0.767-0.271v-1.567h-1.08
			c-0.104,0-0.184-0.029-0.244-0.087c-0.06-0.058-0.09-0.128-0.09-0.212v-0.906h2.868v3.488c-0.219,0.158-0.446,0.297-0.683,0.414
			s-0.488,0.213-0.758,0.289c-0.268,0.075-0.555,0.132-0.861,0.17c-0.306,0.037-0.635,0.057-0.988,0.057
			c-0.629,0-1.207-0.109-1.735-0.328s-0.985-0.522-1.371-0.912s-0.687-0.854-0.903-1.395c-0.217-0.541-0.324-1.131-0.324-1.771
			c0-0.646,0.104-1.241,0.315-1.781c0.21-0.541,0.51-1.006,0.897-1.396c0.387-0.39,0.857-0.691,1.41-0.906
			c0.552-0.214,1.172-0.321,1.859-0.321c0.703,0,1.312,0.104,1.827,0.312s0.95,0.48,1.308,0.814l-0.465,0.727
			c-0.091,0.146-0.212,0.221-0.363,0.221c-0.096,0-0.192-0.031-0.292-0.096c-0.127-0.075-0.257-0.15-0.39-0.227
			c-0.134-0.075-0.281-0.141-0.441-0.196c-0.161-0.056-0.342-0.102-0.543-0.138c-0.201-0.035-0.432-0.053-0.694-0.053
			c-0.425,0-0.81,0.07-1.153,0.214s-0.637,0.349-0.879,0.614c-0.243,0.266-0.43,0.586-0.561,0.959
			c-0.131,0.375-0.197,0.791-0.197,1.252c0,0.498,0.07,0.939,0.209,1.327s0.334,0.714,0.584,0.98s0.549,0.47,0.895,0.61
			C525.919,269.307,526.296,269.378,526.706,269.378z"/>
	</g>
	<g>
		<path fill="#546E7A" d="M572.011,266.122l-2.748-4.185h1.598c0.111,0,0.191,0.015,0.242,0.045c0.049,0.03,0.094,0.079,0.134,0.146
			l1.961,3.166c0.021-0.052,0.042-0.103,0.065-0.152c0.023-0.049,0.052-0.1,0.084-0.152l1.794-2.831
			c0.087-0.147,0.2-0.221,0.34-0.221h1.538l-2.777,4.12l2.855,4.5h-1.604c-0.107,0-0.194-0.027-0.26-0.084
			c-0.066-0.055-0.121-0.119-0.164-0.19l-1.997-3.302c-0.017,0.047-0.034,0.092-0.054,0.134s-0.039,0.08-0.06,0.116l-1.913,3.052
			c-0.045,0.067-0.098,0.13-0.162,0.188c-0.062,0.057-0.143,0.086-0.238,0.086h-1.502L572.011,266.122z"/>
		<path fill="#546E7A" d="M581.394,267.208v3.35h-1.604v-3.35l-3.141-5.271h1.412c0.139,0,0.25,0.034,0.331,0.102
			s0.149,0.153,0.206,0.257l1.579,2.879c0.091,0.171,0.171,0.332,0.238,0.486c0.067,0.152,0.13,0.303,0.185,0.449
			c0.052-0.15,0.111-0.303,0.176-0.456c0.066-0.153,0.145-0.312,0.236-0.479l1.567-2.879c0.044-0.088,0.109-0.17,0.196-0.245
			c0.088-0.075,0.199-0.113,0.334-0.113h1.419L581.394,267.208z"/>
	</g>
	<g>
		<path fill="#546E7A" d="M631.319,261.938v1.276h-3.82v2.551h3.225v1.281h-3.225v3.512h-1.616v-8.62H631.319z"/>
		<path fill="#546E7A" d="M637.537,261.938v1.276h-3.821v2.551h3.225v1.281h-3.225v3.512h-1.615v-8.62H637.537z"/>
	</g>
	<g>
		<path fill="#546E7A" d="M685.011,266.122l-2.748-4.185h1.598c0.111,0,0.191,0.015,0.242,0.045c0.049,0.03,0.094,0.079,0.134,0.146
			l1.961,3.166c0.021-0.052,0.042-0.103,0.065-0.152c0.023-0.049,0.052-0.1,0.084-0.152l1.794-2.831
			c0.087-0.147,0.2-0.221,0.34-0.221h1.538l-2.777,4.12l2.855,4.5h-1.604c-0.107,0-0.194-0.027-0.26-0.084
			c-0.066-0.055-0.121-0.119-0.164-0.19l-1.997-3.302c-0.017,0.047-0.034,0.092-0.054,0.134s-0.039,0.08-0.06,0.116l-1.913,3.052
			c-0.045,0.067-0.098,0.13-0.162,0.188c-0.062,0.057-0.143,0.086-0.238,0.086h-1.502L685.011,266.122z"/>
		<path fill="#546E7A" d="M694.394,267.208v3.35h-1.604v-3.35l-3.141-5.271h1.412c0.139,0,0.25,0.034,0.331,0.102
			s0.149,0.153,0.206,0.257l1.579,2.879c0.091,0.171,0.171,0.332,0.238,0.486c0.067,0.152,0.13,0.303,0.185,0.449
			c0.052-0.15,0.111-0.303,0.176-0.456c0.066-0.153,0.145-0.312,0.236-0.479l1.567-2.879c0.044-0.088,0.109-0.17,0.196-0.245
			c0.088-0.075,0.199-0.113,0.334-0.113h1.419L694.394,267.208z"/>
	</g>
	<g>
		<path fill="#546E7A" d="M744.319,261.938v1.276h-3.82v2.551h3.225v1.281h-3.225v3.512h-1.616v-8.62H744.319z"/>
		<path fill="#546E7A" d="M750.537,261.938v1.276h-3.821v2.551h3.225v1.281h-3.225v3.512h-1.615v-8.62H750.537z"/>
	</g>
	<g>
		<polyline fill="none" stroke="#43A047" stroke-linecap="round" stroke-linejoin="round" stroke-miterlimit="10" points="
			63.182,15.798 213.464,75.058 305.964,72.005 364.007,85.29 407.086,45.798 450.077,85.29 536.05,125.28 622.027,45.798 
			743.973,165.022 		"/>
		<circle fill="#43A047" cx="406.629" cy="45.798" r="3.052"/>
		<circle fill="#43A047" cx="448.742" cy="84.942" r="3.052"/>
		<circle fill="#43A047" cx="364.007" cy="85.29" r="3.052"/>
		<circle fill="#43A047" cx="213.464" cy="75.059" r="3.052"/>
		<circle fill="#43A047" cx="622.486" cy="45.798" r="3.052"/>
		<circle fill="#43A047" cx="305.964" cy="72.005" r="3.052"/>
		<circle fill="#43A047" cx="63.183" cy="14.649" r="3.052"/>
		<circle fill="#43A047" cx="536.05" cy="125.281" r="3.052"/>
		<circle fill="#43A047" cx="743.972" cy="164.596" r="3.052"/>
	</g>
</g>
</svg>
