<?xml version="1.0" encoding="utf-8"?>
<!-- Generator: Adobe Illustrator 16.0.0, SVG Export Plug-In . SVG Version: 6.00 Build 0)  -->
<!DOCTYPE svg PUBLIC "-//W3C//DTD SVG 1.1//EN" "http://www.w3.org/Graphics/SVG/1.1/DTD/svg11.dtd">
<svg version="1.1" id="Layer_1" xmlns="http://www.w3.org/2000/svg" xmlns:xlink="http://www.w3.org/1999/xlink" x="0px" y="0px"
	 width="219.205px" height="80px" viewBox="0 0 219.205 80" enable-background="new 0 0 219.205 80" xml:space="preserve">
<g>
	<g>
		<path fill="#FFFFFF" d="M56.052,50.031c-0.503,0-0.883-0.069-1.14-0.207c-0.258-0.137-0.472-0.422-0.644-0.857l-0.377-0.978
			c-0.446,0.378-0.875,0.71-1.287,0.995c-0.411,0.285-0.838,0.529-1.278,0.729c-0.44,0.2-0.909,0.35-1.406,0.445
			c-0.497,0.097-1.049,0.146-1.656,0.146c-0.812,0-1.549-0.105-2.212-0.318c-0.663-0.211-1.226-0.523-1.689-0.938
			c-0.463-0.412-0.821-0.926-1.072-1.54c-0.251-0.613-0.377-1.322-0.377-2.125c0-0.631,0.16-1.279,0.48-1.943
			c0.32-0.666,0.875-1.271,1.664-1.816c0.789-0.544,1.853-1,3.19-1.367c1.337-0.367,3.024-0.551,5.06-0.551v-0.762
			c0-1.05-0.214-1.81-0.643-2.276c-0.429-0.468-1.039-0.701-1.827-0.701c-0.629,0-1.144,0.068-1.544,0.206
			c-0.4,0.138-0.757,0.292-1.072,0.463c-0.314,0.172-0.621,0.327-0.918,0.463c-0.297,0.137-0.652,0.206-1.063,0.206
			c-0.366,0-0.678-0.088-0.935-0.266c-0.257-0.177-0.46-0.397-0.609-0.66l-0.96-1.664c1.075-0.949,2.266-1.655,3.576-2.118
			c1.309-0.463,2.713-0.695,4.211-0.695c1.075,0,2.044,0.174,2.908,0.523c0.863,0.349,1.595,0.835,2.195,1.458
			c0.601,0.624,1.061,1.364,1.381,2.222c0.32,0.858,0.48,1.795,0.48,2.813v11.115L56.052,50.031L56.052,50.031z M49.946,46.789
			c0.686,0,1.287-0.12,1.801-0.359c0.514-0.24,1.035-0.63,1.561-1.168v-2.436c-1.063,0-1.938,0.07-2.624,0.209
			c-0.686,0.137-1.229,0.311-1.629,0.518c-0.4,0.209-0.678,0.445-0.832,0.711c-0.154,0.266-0.231,0.553-0.231,0.864
			c0,0.611,0.166,1.041,0.497,1.289C48.82,46.665,49.305,46.789,49.946,46.789z"/>
		<path fill="#FFFFFF" d="M72.69,50.031c-0.332,0-0.609-0.074-0.832-0.223c-0.223-0.149-0.38-0.373-0.472-0.67l-0.412-1.355
			c-0.354,0.378-0.726,0.721-1.115,1.029c-0.389,0.31-0.81,0.574-1.261,0.797c-0.452,0.225-0.938,0.396-1.458,0.516
			c-0.521,0.12-1.083,0.18-1.689,0.18c-0.926,0-1.784-0.205-2.573-0.617s-1.469-1.006-2.041-1.782
			c-0.572-0.777-1.021-1.73-1.347-2.856c-0.326-1.126-0.488-2.408-0.488-3.851c0-1.326,0.183-2.559,0.548-3.697
			c0.366-1.138,0.883-2.121,1.552-2.95c0.669-0.829,1.473-1.478,2.41-1.947c0.938-0.469,1.973-0.703,3.104-0.703
			c0.915,0,1.69,0.134,2.324,0.403c0.635,0.269,1.209,0.621,1.724,1.055v-9.005h5.318v25.678L72.69,50.031L72.69,50.031z
			 M67.304,46.223c0.389,0,0.74-0.037,1.055-0.111c0.314-0.074,0.603-0.18,0.866-0.316c0.263-0.139,0.511-0.311,0.747-0.516
			c0.234-0.205,0.465-0.445,0.694-0.721v-7.548c-0.411-0.446-0.849-0.757-1.312-0.935c-0.463-0.178-0.952-0.266-1.466-0.266
			c-0.492,0-0.943,0.097-1.355,0.292c-0.412,0.194-0.77,0.506-1.072,0.935c-0.303,0.429-0.541,0.986-0.712,1.673
			c-0.171,0.686-0.257,1.515-0.257,2.487c0,0.938,0.069,1.727,0.206,2.367c0.137,0.64,0.329,1.158,0.575,1.553
			s0.54,0.678,0.883,0.849C66.498,46.136,66.881,46.223,67.304,46.223z"/>
		<path fill="#FFFFFF" d="M90.323,50.031c-0.504,0-0.883-0.069-1.141-0.207c-0.257-0.137-0.472-0.422-0.644-0.857l-0.377-0.978
			c-0.446,0.378-0.875,0.71-1.287,0.995c-0.411,0.285-0.838,0.529-1.278,0.729c-0.44,0.2-0.909,0.35-1.406,0.445
			c-0.497,0.097-1.049,0.146-1.656,0.146c-0.812,0-1.549-0.105-2.212-0.318c-0.663-0.211-1.226-0.523-1.689-0.938
			c-0.463-0.412-0.821-0.926-1.072-1.54c-0.251-0.613-0.377-1.322-0.377-2.125c0-0.631,0.16-1.279,0.48-1.943
			c0.32-0.666,0.875-1.271,1.664-1.816c0.789-0.544,1.853-1,3.19-1.367c1.337-0.367,3.024-0.551,5.06-0.551v-0.762
			c0-1.05-0.214-1.81-0.643-2.276c-0.429-0.468-1.038-0.701-1.827-0.701c-0.629,0-1.144,0.068-1.543,0.206
			c-0.401,0.137-0.758,0.292-1.072,0.463c-0.314,0.172-0.621,0.327-0.917,0.463c-0.297,0.137-0.652,0.206-1.063,0.206
			c-0.366,0-0.678-0.088-0.935-0.266c-0.257-0.177-0.46-0.397-0.608-0.66l-0.96-1.664c1.074-0.949,2.266-1.655,3.576-2.118
			c1.31-0.463,2.713-0.695,4.211-0.695c1.075,0,2.044,0.174,2.908,0.523c0.863,0.349,1.595,0.835,2.195,1.458
			c0.601,0.624,1.061,1.364,1.381,2.222c0.32,0.858,0.48,1.795,0.48,2.813v11.115L90.323,50.031L90.323,50.031z M84.216,46.789
			c0.686,0,1.287-0.12,1.801-0.359c0.514-0.24,1.035-0.63,1.561-1.168v-2.436c-1.063,0-1.938,0.07-2.625,0.209
			c-0.686,0.137-1.229,0.311-1.629,0.518c-0.4,0.209-0.678,0.445-0.832,0.711c-0.154,0.266-0.231,0.553-0.231,0.864
			c0,0.611,0.166,1.041,0.497,1.289C83.09,46.665,83.576,46.789,84.216,46.789z"/>
		<path fill="#FFFFFF" d="M94.473,50.031V32.243h3.293c0.332,0,0.609,0.074,0.832,0.223c0.223,0.149,0.38,0.372,0.472,0.669
			l0.292,0.96c0.297-0.309,0.606-0.592,0.927-0.849c0.32-0.257,0.666-0.48,1.038-0.669c0.371-0.189,0.771-0.337,1.2-0.446
			c0.429-0.108,0.901-0.163,1.415-0.163c1.075,0,1.964,0.277,2.667,0.832c0.703,0.555,1.238,1.295,1.604,2.221
			c0.297-0.549,0.661-1.017,1.09-1.406c0.429-0.389,0.891-0.704,1.389-0.943c0.498-0.24,1.022-0.417,1.578-0.532
			c0.555-0.115,1.105-0.171,1.655-0.171c1.019,0,1.921,0.151,2.709,0.454c0.789,0.303,1.449,0.744,1.981,1.321
			c0.531,0.578,0.935,1.287,1.21,2.127c0.272,0.84,0.409,1.792,0.409,2.855V50.03h-5.315V38.727c0-1.841-0.789-2.761-2.366-2.761
			c-0.722,0-1.318,0.237-1.794,0.711c-0.474,0.475-0.711,1.158-0.711,2.05v11.304h-5.317V38.727c0-1.017-0.2-1.732-0.601-2.144
			c-0.401-0.412-0.989-0.617-1.767-0.617c-0.48,0-0.935,0.108-1.363,0.326c-0.429,0.217-0.833,0.509-1.21,0.875v12.865
			L94.473,50.031L94.473,50.031z"/>
		<path fill="#FFFFFF" d="M134.231,50.031c-0.502,0-0.883-0.069-1.141-0.207c-0.257-0.137-0.472-0.422-0.645-0.857l-0.377-0.978
			c-0.444,0.378-0.875,0.71-1.286,0.995c-0.41,0.285-0.839,0.529-1.277,0.729c-0.44,0.2-0.907,0.35-1.405,0.445
			s-1.05,0.146-1.656,0.146c-0.812,0-1.549-0.105-2.213-0.318c-0.662-0.211-1.226-0.523-1.688-0.938
			c-0.463-0.412-0.821-0.926-1.071-1.54c-0.252-0.613-0.379-1.322-0.379-2.125c0-0.631,0.16-1.279,0.48-1.943
			c0.32-0.666,0.875-1.271,1.664-1.816c0.789-0.544,1.854-1,3.191-1.367c1.336-0.367,3.022-0.551,5.059-0.551v-0.762
			c0-1.05-0.213-1.81-0.643-2.276c-0.43-0.468-1.039-0.701-1.826-0.701c-0.631,0-1.146,0.068-1.545,0.206
			c-0.4,0.138-0.758,0.292-1.072,0.463c-0.313,0.172-0.619,0.327-0.916,0.463c-0.299,0.137-0.652,0.206-1.064,0.206
			c-0.365,0-0.678-0.088-0.936-0.266c-0.256-0.177-0.461-0.397-0.607-0.66l-0.961-1.664c1.074-0.949,2.268-1.655,3.576-2.118
			c1.309-0.463,2.713-0.695,4.211-0.695c1.074,0,2.044,0.174,2.908,0.523c0.861,0.349,1.595,0.835,2.195,1.458
			c0.6,0.624,1.061,1.364,1.381,2.222c0.318,0.858,0.479,1.795,0.479,2.813v11.115L134.231,50.031L134.231,50.031z M128.126,46.789
			c0.686,0,1.287-0.12,1.801-0.359c0.516-0.24,1.035-0.63,1.561-1.168v-2.436c-1.062,0-1.938,0.07-2.623,0.209
			c-0.686,0.137-1.229,0.311-1.629,0.518c-0.4,0.209-0.678,0.445-0.834,0.711c-0.152,0.266-0.229,0.553-0.229,0.864
			c0,0.611,0.166,1.041,0.497,1.289S127.485,46.789,128.126,46.789z"/>
		<path fill="#FFFFFF" d="M138.384,50.031V32.243h3.293c0.332,0,0.608,0.074,0.832,0.223c0.223,0.149,0.379,0.372,0.473,0.669
			l0.309,1.029c0.343-0.32,0.697-0.617,1.062-0.892c0.365-0.274,0.758-0.506,1.176-0.694c0.416-0.189,0.869-0.337,1.354-0.446
			c0.486-0.108,1.016-0.163,1.588-0.163c0.971,0,1.832,0.168,2.58,0.506c0.75,0.337,1.383,0.806,1.896,1.406
			c0.514,0.601,0.902,1.315,1.166,2.144c0.263,0.829,0.395,1.73,0.395,2.702v11.304h-5.316V38.727c0-0.869-0.2-1.546-0.602-2.032
			c-0.4-0.486-0.988-0.729-1.766-0.729c-0.584,0-1.133,0.125-1.647,0.377s-1.007,0.589-1.475,1.012v12.676H138.384z"/>
		<path fill="#FFFFFF" d="M162.466,50.305c-0.848,0-1.594-0.123-2.238-0.369c-0.646-0.244-1.189-0.595-1.631-1.045
			c-0.438-0.453-0.775-0.998-1.004-1.64s-0.342-1.354-0.342-2.144v-9.194h-1.51c-0.274,0-0.51-0.088-0.703-0.266
			c-0.195-0.177-0.292-0.437-0.292-0.78v-2.076l2.831-0.548l1.046-4.34c0.138-0.549,0.524-0.823,1.166-0.823h2.778v5.197h4.322
			v3.636h-4.322v8.834c0,0.411,0.101,0.752,0.301,1.021c0.199,0.27,0.488,0.403,0.865,0.403c0.195,0,0.357-0.021,0.49-0.062
			c0.131-0.039,0.246-0.086,0.342-0.137c0.098-0.052,0.188-0.098,0.274-0.138s0.187-0.06,0.302-0.06c0.158,0,0.287,0.037,0.385,0.11
			c0.098,0.074,0.197,0.191,0.301,0.353l1.611,2.521c-0.687,0.515-1.457,0.9-2.314,1.158
			C164.267,50.176,163.38,50.305,162.466,50.305z"/>
		<path fill="#FFFFFF" d="M173.991,27.372c0,0.423-0.086,0.821-0.258,1.192c-0.172,0.372-0.405,0.698-0.703,0.978
			c-0.297,0.28-0.643,0.503-1.037,0.669s-0.814,0.249-1.262,0.249c-0.435,0-0.84-0.083-1.217-0.249s-0.713-0.389-1.005-0.669
			c-0.29-0.28-0.521-0.606-0.686-0.978c-0.166-0.371-0.249-0.769-0.249-1.192c0-0.435,0.083-0.841,0.249-1.218
			c0.165-0.377,0.396-0.709,0.686-0.995c0.292-0.286,0.628-0.508,1.005-0.669c0.377-0.16,0.782-0.24,1.217-0.24
			c0.447,0,0.867,0.08,1.262,0.24c0.395,0.161,0.74,0.383,1.037,0.669c0.298,0.286,0.531,0.618,0.703,0.995
			C173.905,26.531,173.991,26.937,173.991,27.372z M173.374,32.243v17.788h-5.316V32.243H173.374z"/>
		<path fill="#FFFFFF" d="M180.578,32.243V43.53c0,0.88,0.2,1.561,0.601,2.04s0.988,0.721,1.766,0.721
			c0.584,0,1.13-0.119,1.64-0.359c0.509-0.24,1.004-0.578,1.483-1.012V32.243h5.316v17.788h-3.293c-0.664,0-1.098-0.299-1.304-0.893
			l-0.325-1.029c-0.344,0.332-0.697,0.633-1.064,0.899c-0.364,0.271-0.758,0.498-1.174,0.687c-0.418,0.189-0.867,0.338-1.348,0.447
			c-0.48,0.107-1.006,0.162-1.578,0.162c-0.971,0-1.832-0.169-2.58-0.507c-0.75-0.336-1.381-0.809-1.896-1.415
			c-0.514-0.605-0.901-1.32-1.166-2.144c-0.264-0.824-0.395-1.728-0.395-2.71V32.243H180.578z"/>
		<path fill="#FFFFFF" d="M193.442,50.031V32.243h3.293c0.33,0,0.607,0.074,0.832,0.223c0.223,0.149,0.379,0.372,0.471,0.669
			l0.292,0.96c0.298-0.309,0.606-0.592,0.927-0.849s0.666-0.48,1.037-0.669c0.372-0.189,0.771-0.337,1.201-0.446
			c0.429-0.108,0.9-0.163,1.414-0.163c1.076,0,1.965,0.277,2.668,0.832c0.703,0.555,1.238,1.295,1.604,2.221
			c0.297-0.549,0.66-1.017,1.09-1.406c0.429-0.389,0.893-0.704,1.39-0.943c0.498-0.24,1.022-0.417,1.577-0.532
			c0.556-0.115,1.107-0.171,1.656-0.171c1.019,0,1.92,0.151,2.711,0.454c0.787,0.303,1.447,0.744,1.979,1.321
			c0.532,0.578,0.935,1.287,1.21,2.127c0.273,0.84,0.411,1.792,0.411,2.855V50.03h-5.317V38.727c0-1.841-0.789-2.761-2.367-2.761
			c-0.721,0-1.317,0.237-1.791,0.711c-0.477,0.475-0.713,1.158-0.713,2.05v11.304h-5.317V38.727c0-1.017-0.199-1.732-0.601-2.144
			c-0.4-0.412-0.988-0.617-1.767-0.617c-0.479,0-0.935,0.108-1.364,0.326c-0.428,0.217-0.83,0.509-1.209,0.875v12.865
			L193.442,50.031L193.442,50.031z"/>
	</g>
	<g>
		<g>
			<path fill="#49C49F" d="M26.555,43.227c-4.133-2.093-6.091-6.044-6.091-6.044c-0.227-0.057-0.471-0.168-0.791-0.217
				c-0.076-0.012-0.129-0.024-0.201-0.033c-0.263-0.047-0.56-0.069-0.83-0.056c-0.869,0.035-1.563,0.234-2.394,0.571
				c-1.197,0.492-1.833,1.357-2.331,2.303c-0.083,0.163-0.157,0.341-0.222,0.518c-0.15,0.406-0.192,0.587-0.313,0.945
				c-0.027,0.064-0.018,0.086-0.04,0.145c0,0,0.558,3.859-0.162,7.152c-0.718,3.293-2.677,5.328-2.386,5.967
				c0.45,0.986,0.709,1.431,1.49,2.142c0.215,0.2,0.486,0.378,0.727,0.526c0.457,0.271,0.511,0.24,0.782,0.379
				c0.235,0.121,0.544,0.188,0.813,0.244c0.208,0.051,0.439,0.084,0.656,0.099c0.031,0,0.067,0.003,0.102,0.006
				c0.346,0.017,0.729,0.008,1.079-0.088l1.055-0.349l0.315-0.145c1.041-0.529,2.47-1.771,3.292-2.459
				c0.215-0.182,0.452-0.359,0.686-0.541l1.612-0.992c0.815-0.433,2.529-0.807,3.491-0.949c1.094-0.151,2.398-0.358,3.421-0.763
				l0.522-0.237c0.95-0.498,1.697-1.264,2.153-2.203c0.593-1.209,0.756-2.431,0.366-3.766C32.83,43.585,30.688,45.322,26.555,43.227
				z"/>
			<path fill="#49C49F" d="M29.005,30.15c0.05-0.235,0.066-0.473,0.037-0.703c-0.054-0.412-0.223-0.786-0.478-1.084
				c-0.247-0.301-0.57-0.538-1.01-0.646c-0.08,0.449-0.077,0.793-0.064,1.103c0.003,0.314,0.036,0.578,0.065,0.825
				c0.021,0.181,0.055,0.35,0.089,0.525c-1.355,0.609-2.199,2.909-2.165,4.713c0.04,2.081,1.482,3.739,3.219,3.704
				c1.737-0.035,3.111-1.748,3.068-3.828C31.733,32.961,30.47,30.704,29.005,30.15z"/>
			<path fill="#49C49F" d="M19.799,34.477c2.098-0.464,3.348-2.877,2.792-5.389c-0.463-2.096-2.418-4.425-4.273-4.874
				c0.004-0.122,0.024-0.245,0.007-0.365c-0.054-0.411-0.223-0.786-0.477-1.084c-0.247-0.299-0.57-0.538-1.012-0.643
				c-0.08,0.449-0.074,0.792-0.062,1.103c0.003,0.314,0.036,0.577,0.065,0.824c0.012,0.087,0.026,0.168,0.042,0.249
				c-1.815,0.776-2.408,4.107-1.885,6.47C15.552,33.279,17.701,34.941,19.799,34.477z"/>
			<path fill="#49C49F" d="M11.371,38.465c1.999-1.114,2.541-3.955,1.209-6.35c-1.269-2.283-4.61-4.289-6.656-3.513
				c-0.049-0.061-0.099-0.122-0.154-0.184c-0.167-0.187-0.344-0.384-0.578-0.591c-0.227-0.212-0.482-0.441-0.875-0.674
				c-0.21,0.404-0.243,0.803-0.177,1.187c0.06,0.385,0.232,0.758,0.507,1.068c0.043,0.047,0.105,0.083,0.153,0.129
				c-1.01,1.609-0.564,4.618,0.539,6.602C6.67,38.536,9.37,39.575,11.371,38.465z"/>
			<path fill="#49C49F" d="M8.041,42.521c-1.42-1.771-4.557-3.012-6.231-2.104c-0.05-0.061-0.097-0.12-0.151-0.178
				c-0.166-0.186-0.342-0.385-0.578-0.593c-0.225-0.21-0.483-0.439-0.874-0.675c-0.209,0.406-0.242,0.803-0.177,1.187
				c0.059,0.388,0.234,0.762,0.507,1.073c0.096,0.108,0.221,0.197,0.343,0.285c-0.573,1.555,0.253,4.032,1.476,5.56
				c1.509,1.882,4.003,2.387,5.575,1.126C9.498,46.945,9.548,44.4,8.041,42.521z"/>
		</g>
	</g>
</g>
</svg>
