<?xml version="1.0" encoding="utf-8"?>
<!-- Generator: Adobe Illustrator 15.1.0, SVG Export Plug-In . SVG Version: 6.00 Build 0)  -->
<!DOCTYPE svg PUBLIC "-//W3C//DTD SVG 1.1//EN" "http://www.w3.org/Graphics/SVG/1.1/DTD/svg11.dtd">
<svg version="1.1" id="Layer_1" xmlns="http://www.w3.org/2000/svg" xmlns:xlink="http://www.w3.org/1999/xlink" x="0px" y="0px"
	 width="219.205px" height="80px" viewBox="0 0 219.205 80" enable-background="new 0 0 219.205 80" xml:space="preserve">
<g>
	<g>
		<path fill="#439FE0" d="M56.052,50.031c-0.503,0-0.883-0.069-1.14-0.207c-0.258-0.137-0.472-0.422-0.644-0.857l-0.377-0.978
			c-0.446,0.378-0.875,0.71-1.287,0.995c-0.411,0.286-0.838,0.529-1.278,0.729c-0.44,0.2-0.909,0.349-1.406,0.445
			c-0.497,0.097-1.049,0.146-1.656,0.146c-0.812,0-1.549-0.105-2.212-0.318c-0.663-0.211-1.226-0.523-1.689-0.938
			c-0.463-0.412-0.821-0.926-1.072-1.54s-0.377-1.322-0.377-2.125c0-0.631,0.16-1.279,0.48-1.944
			c0.32-0.666,0.875-1.271,1.664-1.816c0.789-0.544,1.853-1,3.19-1.367s3.024-0.551,5.06-0.551v-0.762
			c0-1.05-0.214-1.81-0.643-2.276c-0.429-0.468-1.039-0.701-1.827-0.701c-0.629,0-1.144,0.068-1.544,0.206s-0.757,0.292-1.072,0.463
			c-0.314,0.172-0.621,0.327-0.918,0.463c-0.297,0.137-0.652,0.206-1.063,0.206c-0.366,0-0.678-0.088-0.935-0.266
			c-0.257-0.177-0.46-0.397-0.609-0.66l-0.96-1.664c1.075-0.949,2.266-1.655,3.576-2.118c1.309-0.463,2.713-0.695,4.211-0.695
			c1.075,0,2.044,0.174,2.908,0.523c0.863,0.349,1.595,0.835,2.195,1.458c0.601,0.624,1.061,1.364,1.381,2.222
			c0.32,0.858,0.48,1.795,0.48,2.813v11.115H56.052z M49.946,46.789c0.686,0,1.287-0.12,1.801-0.36s1.035-0.629,1.561-1.167v-2.436
			c-1.063,0-1.938,0.07-2.624,0.209c-0.686,0.137-1.229,0.311-1.629,0.518c-0.4,0.209-0.678,0.445-0.832,0.711
			c-0.154,0.265-0.231,0.553-0.231,0.864c0,0.611,0.166,1.041,0.497,1.289S49.305,46.789,49.946,46.789z"/>
		<path fill="#439FE0" d="M72.69,50.031c-0.332,0-0.609-0.074-0.832-0.223c-0.223-0.149-0.38-0.372-0.472-0.67l-0.412-1.355
			c-0.354,0.378-0.726,0.721-1.115,1.029c-0.389,0.31-0.81,0.575-1.261,0.798c-0.452,0.224-0.938,0.396-1.458,0.515
			c-0.521,0.12-1.083,0.18-1.689,0.18c-0.926,0-1.784-0.205-2.573-0.617s-1.469-1.006-2.041-1.783
			c-0.572-0.777-1.021-1.73-1.347-2.856s-0.488-2.409-0.488-3.851c0-1.326,0.183-2.559,0.548-3.697
			c0.366-1.138,0.883-2.121,1.552-2.95c0.669-0.829,1.473-1.478,2.41-1.947c0.938-0.469,1.973-0.703,3.104-0.703
			c0.915,0,1.69,0.134,2.324,0.403c0.635,0.269,1.209,0.621,1.724,1.055v-9.005h5.318v25.678H72.69z M67.304,46.222
			c0.389,0,0.74-0.037,1.055-0.111c0.314-0.074,0.603-0.18,0.866-0.316c0.263-0.139,0.511-0.31,0.747-0.516
			c0.234-0.205,0.465-0.445,0.694-0.721v-7.547c-0.411-0.446-0.849-0.757-1.312-0.935s-0.952-0.266-1.466-0.266
			c-0.492,0-0.943,0.097-1.355,0.292c-0.412,0.194-0.77,0.506-1.072,0.935c-0.303,0.429-0.541,0.986-0.712,1.673
			c-0.171,0.686-0.257,1.515-0.257,2.487c0,0.938,0.069,1.727,0.206,2.367s0.329,1.158,0.575,1.553s0.54,0.678,0.883,0.849
			C66.498,46.136,66.881,46.222,67.304,46.222z"/>
		<path fill="#439FE0" d="M90.323,50.031c-0.504,0-0.883-0.069-1.141-0.207c-0.257-0.137-0.472-0.422-0.644-0.857l-0.377-0.978
			c-0.446,0.378-0.875,0.71-1.287,0.995c-0.411,0.286-0.838,0.529-1.278,0.729s-0.909,0.349-1.406,0.445
			c-0.497,0.097-1.049,0.146-1.656,0.146c-0.812,0-1.549-0.105-2.212-0.318c-0.663-0.211-1.226-0.523-1.689-0.938
			c-0.463-0.412-0.821-0.926-1.072-1.54c-0.251-0.614-0.377-1.322-0.377-2.125c0-0.631,0.16-1.279,0.48-1.944
			c0.32-0.666,0.875-1.271,1.664-1.816c0.789-0.544,1.853-1,3.19-1.367s3.024-0.551,5.06-0.551v-0.762
			c0-1.05-0.214-1.81-0.643-2.276c-0.429-0.468-1.038-0.701-1.827-0.701c-0.629,0-1.144,0.068-1.543,0.206
			c-0.401,0.137-0.758,0.292-1.072,0.463c-0.314,0.172-0.621,0.327-0.917,0.463c-0.297,0.137-0.652,0.206-1.063,0.206
			c-0.366,0-0.678-0.088-0.935-0.266c-0.257-0.177-0.46-0.397-0.608-0.66l-0.96-1.664c1.074-0.949,2.266-1.655,3.576-2.118
			c1.31-0.463,2.713-0.695,4.211-0.695c1.075,0,2.044,0.174,2.908,0.523c0.863,0.349,1.595,0.835,2.195,1.458
			c0.601,0.624,1.061,1.364,1.381,2.222c0.32,0.858,0.48,1.795,0.48,2.813v11.115H90.323z M84.216,46.789
			c0.686,0,1.287-0.12,1.801-0.36s1.035-0.629,1.561-1.167v-2.436c-1.063,0-1.938,0.07-2.625,0.209
			c-0.686,0.137-1.229,0.311-1.629,0.518c-0.4,0.209-0.678,0.445-0.832,0.711c-0.154,0.265-0.231,0.553-0.231,0.864
			c0,0.611,0.166,1.041,0.497,1.289C83.09,46.665,83.576,46.789,84.216,46.789z"/>
		<path fill="#439FE0" d="M94.473,50.031V32.243h3.293c0.332,0,0.609,0.074,0.832,0.223c0.223,0.149,0.38,0.372,0.472,0.669
			l0.292,0.96c0.297-0.309,0.606-0.592,0.927-0.849c0.32-0.257,0.666-0.48,1.038-0.669c0.371-0.189,0.771-0.337,1.2-0.446
			c0.429-0.108,0.901-0.163,1.415-0.163c1.075,0,1.964,0.277,2.667,0.832c0.703,0.555,1.238,1.295,1.604,2.221
			c0.297-0.549,0.661-1.017,1.09-1.406c0.429-0.389,0.892-0.704,1.389-0.943c0.498-0.24,1.023-0.417,1.578-0.532
			s1.106-0.171,1.656-0.171c1.018,0,1.92,0.151,2.709,0.454c0.789,0.303,1.449,0.744,1.981,1.321
			c0.532,0.578,0.935,1.287,1.21,2.127c0.273,0.84,0.41,1.792,0.41,2.855v11.304h-5.316V38.727c0-1.841-0.789-2.761-2.367-2.761
			c-0.721,0-1.318,0.237-1.793,0.711c-0.474,0.475-0.711,1.158-0.711,2.05v11.304h-5.317V38.727c0-1.017-0.2-1.732-0.601-2.144
			s-0.989-0.617-1.767-0.617c-0.48,0-0.935,0.108-1.363,0.326c-0.429,0.217-0.833,0.509-1.21,0.875v12.865H94.473z"/>
		<path fill="#439FE0" d="M134.232,50.031c-0.503,0-0.884-0.069-1.141-0.207c-0.257-0.137-0.472-0.422-0.644-0.857l-0.377-0.978
			c-0.445,0.378-0.875,0.71-1.287,0.995c-0.41,0.286-0.838,0.529-1.277,0.729c-0.44,0.2-0.908,0.349-1.406,0.445
			s-1.049,0.146-1.655,0.146c-0.812,0-1.55-0.105-2.213-0.318c-0.663-0.211-1.226-0.523-1.689-0.938
			c-0.463-0.412-0.821-0.926-1.072-1.54s-0.378-1.322-0.378-2.125c0-0.631,0.16-1.279,0.48-1.944
			c0.32-0.666,0.875-1.271,1.664-1.816c0.789-0.544,1.854-1,3.191-1.367s3.023-0.551,5.059-0.551v-0.762
			c0-1.05-0.213-1.81-0.643-2.276c-0.429-0.468-1.038-0.701-1.826-0.701c-0.63,0-1.145,0.068-1.545,0.206s-0.757,0.292-1.072,0.463
			c-0.313,0.172-0.619,0.327-0.916,0.463c-0.299,0.137-0.652,0.206-1.064,0.206c-0.365,0-0.678-0.088-0.935-0.266
			c-0.257-0.177-0.461-0.397-0.608-0.66l-0.961-1.664c1.074-0.949,2.267-1.655,3.576-2.118c1.309-0.463,2.713-0.695,4.211-0.695
			c1.074,0,2.044,0.174,2.908,0.523c0.862,0.349,1.595,0.835,2.195,1.458c0.6,0.624,1.061,1.364,1.381,2.222
			c0.319,0.858,0.48,1.795,0.48,2.813v11.115H134.232z M128.126,46.789c0.686,0,1.287-0.12,1.801-0.36
			c0.516-0.24,1.035-0.629,1.561-1.167v-2.436c-1.062,0-1.938,0.07-2.624,0.209c-0.686,0.137-1.229,0.311-1.629,0.518
			c-0.4,0.209-0.677,0.445-0.833,0.711c-0.153,0.265-0.23,0.553-0.23,0.864c0,0.611,0.166,1.041,0.497,1.289
			C127,46.665,127.485,46.789,128.126,46.789z"/>
		<path fill="#439FE0" d="M138.384,50.031V32.243h3.293c0.332,0,0.608,0.074,0.832,0.223c0.223,0.149,0.379,0.372,0.472,0.669
			l0.309,1.029c0.343-0.32,0.697-0.617,1.063-0.892c0.365-0.274,0.758-0.506,1.175-0.694c0.417-0.189,0.869-0.337,1.354-0.446
			c0.486-0.108,1.016-0.163,1.588-0.163c0.971,0,1.832,0.168,2.58,0.506c0.75,0.337,1.382,0.806,1.896,1.406
			c0.514,0.601,0.903,1.315,1.166,2.144c0.263,0.829,0.395,1.73,0.395,2.702v11.304h-5.317V38.727c0-0.869-0.2-1.546-0.601-2.032
			c-0.4-0.486-0.988-0.729-1.766-0.729c-0.584,0-1.133,0.125-1.647,0.377c-0.515,0.252-1.007,0.589-1.475,1.012v12.676H138.384z"/>
		<path fill="#439FE0" d="M162.466,50.304c-0.848,0-1.594-0.123-2.239-0.368c-0.646-0.245-1.189-0.595-1.63-1.046
			c-0.439-0.452-0.775-0.998-1.004-1.639s-0.342-1.355-0.342-2.144v-9.194h-1.51c-0.274,0-0.509-0.088-0.703-0.266
			c-0.195-0.177-0.292-0.437-0.292-0.78v-2.076l2.831-0.548l1.046-4.34c0.138-0.549,0.525-0.823,1.166-0.823h2.778v5.197h4.323
			v3.636h-4.323v8.834c0,0.411,0.101,0.752,0.301,1.021c0.199,0.269,0.488,0.403,0.866,0.403c0.194,0,0.357-0.021,0.489-0.061
			c0.131-0.039,0.246-0.086,0.342-0.137c0.098-0.052,0.189-0.098,0.275-0.138s0.186-0.06,0.301-0.06
			c0.159,0,0.288,0.037,0.385,0.111c0.098,0.074,0.197,0.191,0.301,0.352l1.612,2.521c-0.687,0.514-1.458,0.9-2.315,1.158
			C164.266,50.176,163.38,50.304,162.466,50.304z"/>
		<path fill="#439FE0" d="M173.991,27.372c0,0.423-0.086,0.821-0.258,1.192c-0.172,0.372-0.405,0.698-0.703,0.978
			c-0.297,0.28-0.643,0.503-1.037,0.669c-0.395,0.166-0.814,0.249-1.261,0.249c-0.435,0-0.841-0.083-1.218-0.249
			c-0.377-0.166-0.712-0.389-1.004-0.669c-0.291-0.28-0.52-0.606-0.686-0.978c-0.166-0.371-0.249-0.769-0.249-1.192
			c0-0.435,0.083-0.841,0.249-1.218s0.395-0.709,0.686-0.995c0.292-0.286,0.627-0.508,1.004-0.669c0.377-0.16,0.783-0.24,1.218-0.24
			c0.446,0,0.866,0.08,1.261,0.24c0.395,0.161,0.74,0.383,1.037,0.669c0.298,0.286,0.531,0.618,0.703,0.995
			S173.991,26.937,173.991,27.372z M173.374,32.243v17.788h-5.317V32.243H173.374z"/>
		<path fill="#439FE0" d="M180.578,32.243V43.53c0,0.88,0.2,1.561,0.601,2.041c0.4,0.479,0.988,0.72,1.766,0.72
			c0.584,0,1.129-0.119,1.639-0.359c0.509-0.24,1.004-0.578,1.484-1.012V32.243h5.316v17.788h-3.293
			c-0.664,0-1.098-0.298-1.304-0.893l-0.325-1.029c-0.344,0.332-0.698,0.633-1.064,0.9c-0.365,0.27-0.758,0.498-1.175,0.687
			s-0.866,0.337-1.347,0.446c-0.48,0.108-1.006,0.162-1.578,0.162c-0.971,0-1.832-0.168-2.58-0.506
			c-0.75-0.336-1.381-0.809-1.896-1.415c-0.515-0.605-0.902-1.32-1.166-2.144s-0.395-1.727-0.395-2.71V32.243H180.578z"/>
		<path fill="#439FE0" d="M193.442,50.031V32.243h3.293c0.331,0,0.608,0.074,0.832,0.223c0.223,0.149,0.379,0.372,0.471,0.669
			l0.292,0.96c0.298-0.309,0.606-0.592,0.927-0.849c0.32-0.257,0.666-0.48,1.037-0.669c0.372-0.189,0.771-0.337,1.201-0.446
			c0.429-0.108,0.9-0.163,1.414-0.163c1.076,0,1.965,0.277,2.668,0.832c0.703,0.555,1.238,1.295,1.604,2.221
			c0.297-0.549,0.66-1.017,1.09-1.406c0.428-0.389,0.892-0.704,1.389-0.943c0.498-0.24,1.023-0.417,1.578-0.532
			s1.106-0.171,1.656-0.171c1.018,0,1.92,0.151,2.71,0.454c0.788,0.303,1.448,0.744,1.98,1.321c0.532,0.578,0.935,1.287,1.21,2.127
			c0.273,0.84,0.411,1.792,0.411,2.855v11.304h-5.317V38.727c0-1.841-0.789-2.761-2.367-2.761c-0.721,0-1.318,0.237-1.792,0.711
			c-0.476,0.475-0.712,1.158-0.712,2.05v11.304h-5.318V38.727c0-1.017-0.199-1.732-0.6-2.144s-0.989-0.617-1.767-0.617
			c-0.48,0-0.935,0.108-1.364,0.326c-0.428,0.217-0.831,0.509-1.209,0.875v12.865H193.442z"/>
	</g>
	<g>
		<g>
			<path fill="#49C49F" d="M26.555,43.227c-4.133-2.093-6.091-6.045-6.091-6.045c-0.227-0.057-0.471-0.168-0.791-0.217
				c-0.076-0.012-0.129-0.024-0.201-0.033c-0.263-0.047-0.56-0.069-0.83-0.056c-0.869,0.035-1.563,0.234-2.394,0.571
				c-1.197,0.492-1.833,1.357-2.331,2.303c-0.083,0.163-0.157,0.341-0.222,0.518c-0.15,0.406-0.192,0.587-0.313,0.945
				c-0.027,0.065-0.018,0.086-0.04,0.144c0,0,0.558,3.86-0.162,7.153c-0.718,3.293-2.677,5.328-2.386,5.967
				c0.45,0.986,0.709,1.43,1.49,2.141c0.215,0.201,0.486,0.378,0.727,0.527c0.457,0.271,0.511,0.24,0.782,0.379
				c0.235,0.121,0.544,0.188,0.813,0.244c0.208,0.05,0.439,0.084,0.656,0.098c0.031,0,0.067,0.003,0.102,0.006
				c0.346,0.016,0.729,0.008,1.079-0.088l1.055-0.348l0.315-0.145c1.041-0.529,2.47-1.771,3.292-2.459
				c0.215-0.182,0.452-0.359,0.686-0.541l1.612-0.992c0.815-0.433,2.529-0.807,3.491-0.949c1.094-0.152,2.398-0.359,3.421-0.763
				l0.522-0.237c0.95-0.498,1.697-1.264,2.153-2.203c0.593-1.209,0.756-2.431,0.366-3.766C32.83,43.585,30.688,45.322,26.555,43.227
				z"/>
			<path fill="#49C49F" d="M29.005,30.15c0.05-0.235,0.066-0.473,0.037-0.703c-0.054-0.412-0.223-0.786-0.478-1.084
				c-0.247-0.301-0.57-0.538-1.01-0.646c-0.08,0.449-0.077,0.793-0.064,1.103c0.003,0.314,0.036,0.578,0.065,0.825
				c0.021,0.181,0.055,0.35,0.089,0.525c-1.355,0.609-2.199,2.909-2.165,4.713c0.04,2.081,1.482,3.739,3.219,3.704
				c1.737-0.035,3.111-1.748,3.068-3.828C31.733,32.961,30.47,30.704,29.005,30.15z"/>
			<path fill="#49C49F" d="M19.799,34.477c2.098-0.464,3.348-2.877,2.792-5.389c-0.463-2.096-2.418-4.425-4.273-4.874
				c0.004-0.122,0.024-0.245,0.007-0.365c-0.054-0.411-0.223-0.786-0.477-1.084c-0.247-0.299-0.57-0.538-1.012-0.643
				c-0.08,0.449-0.074,0.792-0.062,1.103c0.003,0.314,0.036,0.577,0.065,0.824c0.012,0.087,0.026,0.168,0.042,0.249
				c-1.815,0.776-2.408,4.107-1.885,6.47C15.552,33.279,17.701,34.941,19.799,34.477z"/>
			<path fill="#49C49F" d="M11.371,38.465c1.999-1.114,2.541-3.955,1.209-6.35c-1.269-2.283-4.61-4.289-6.656-3.513
				c-0.049-0.061-0.099-0.122-0.154-0.184c-0.167-0.187-0.344-0.384-0.578-0.591c-0.227-0.212-0.482-0.441-0.875-0.674
				c-0.21,0.404-0.243,0.803-0.177,1.187c0.06,0.385,0.232,0.758,0.507,1.068c0.043,0.047,0.105,0.083,0.153,0.129
				c-1.01,1.609-0.564,4.618,0.539,6.602C6.67,38.536,9.37,39.575,11.371,38.465z"/>
			<path fill="#49C49F" d="M8.041,42.521c-1.42-1.771-4.557-3.011-6.231-2.103c-0.05-0.061-0.097-0.12-0.151-0.178
				c-0.166-0.186-0.342-0.385-0.578-0.593c-0.225-0.21-0.483-0.439-0.874-0.675c-0.209,0.406-0.242,0.803-0.177,1.187
				c0.059,0.388,0.234,0.762,0.507,1.073c0.096,0.109,0.221,0.197,0.343,0.285c-0.573,1.555,0.253,4.033,1.476,5.56
				c1.509,1.882,4.003,2.387,5.575,1.126C9.498,46.945,9.548,44.4,8.041,42.521z"/>
		</g>
	</g>
</g>
</svg>
