<?xml version="1.0" encoding="utf-8"?>
<!-- Generator: Adobe Illustrator 15.1.0, SVG Export Plug-In . SVG Version: 6.00 Build 0)  -->
<!DOCTYPE svg PUBLIC "-//W3C//DTD SVG 1.1//EN" "http://www.w3.org/Graphics/SVG/1.1/DTD/svg11.dtd">
<svg version="1.1" id="Layer_1" xmlns="http://www.w3.org/2000/svg" xmlns:xlink="http://www.w3.org/1999/xlink" x="0px" y="0px"
	 width="1411px" height="809px" viewBox="0 0 1411 809" enable-background="new 0 0 1411 809" xml:space="preserve">
<g opacity="0.2">
	<g>
		<polygon fill="#455A64" points="-87.538,43.39 59.134,-53.273 133.68,189.397 		"/>
		<polygon fill="#546E7A" points="133.68,189.397 59.134,-53.273 355.163,334.981 		"/>
		<polygon fill="#546E7A" points="133.68,189.396 -87.538,43.39 -309.569,204.252 -44.818,371.21 		"/>
		<polygon fill="#78909C" points="133.68,189.397 355.163,334.981 332.519,474 		"/>
		<polygon fill="#546E7A" points="439.722,456.481 592.843,302.409 355.163,334.981 332.519,474 		"/>
		<polygon fill="#78909C" points="592.843,302.409 756.182,514.574 439.722,456.481 		"/>
		<polygon opacity="0.1" points="592.843,302.409 756.182,514.574 563.216,479.151 		"/>
		<polygon fill="#455A64" points="592.843,302.409 756.182,514.574 574.358,645.422 		"/>
		<polygon fill="#78909C" points="945.637,480.357 756.182,514.574 574.358,645.422 803.375,745.315 		"/>
		<polygon fill="#546E7A" points="972.229,755.644 1125.35,601.571 945.637,480.357 803.375,745.315 		"/>
		<polygon fill="#455A64" points="803.375,745.315 972.229,755.644 682.143,791.481 		"/>
	</g>
	<g>
		<polygon opacity="0.1" points="189.665,117.923 355.163,334.981 355.163,334.981 133.68,189.397 		"/>
		<polygon fill="#546E7A" points="1130.661,265.472 1389.936,66.99 932.568,144.478 		"/>
		<polygon fill="#78909C" points="1130.661,265.472 932.568,144.478 822.059,227.668 		"/>
		<polygon fill="#546E7A" points="599.113,223.372 571.686,-12.737 932.568,144.478 822.059,227.668 		"/>
		<polygon fill="#455A64" points="571.686,-12.737 265.118,43.402 599.113,223.372 		"/>
	</g>
	<polygon fill="#546E7A" points="265.118,43.402 599.113,223.372 355.163,334.981 133.68,189.397 	"/>
</g>
</svg>
