<?xml version="1.0" encoding="utf-8"?>
<!-- Generator: Adobe Illustrator 15.1.0, SVG Export Plug-In . SVG Version: 6.00 Build 0)  -->
<!DOCTYPE svg PUBLIC "-//W3C//DTD SVG 1.1//EN" "http://www.w3.org/Graphics/SVG/1.1/DTD/svg11.dtd">
<svg version="1.1" id="Layer_1" xmlns="http://www.w3.org/2000/svg" xmlns:xlink="http://www.w3.org/1999/xlink" x="0px" y="0px"
	 width="1683.039px" height="1022.222px" viewBox="0 0 1683.039 1022.222" enable-background="new 0 0 1683.039 1022.222"
	 xml:space="preserve">
<g opacity="0.2">
	<g>
		<polygon fill="#8C313E" points="396.812,31 582.115,-53.085 623.536,238.064 		"/>
		<polygon fill="#9B3B4D" points="623.536,238.064 582.115,-53.085 850.645,444.692 		"/>
		<polygon fill="#9B3B4D" points="623.578,238.018 396.873,30.933 113.757,174.825 386.505,413.732 		"/>
		<polygon fill="#702B38" points="623.536,238.064 850.645,444.692 799.596,599.666 		"/>
		<polygon fill="#9B3B4D" points="925.429,599.005 1128.491,450.396 850.645,444.692 799.596,599.666 		"/>
		<polygon fill="#702B38" points="872.297,367.84 1161.466,255.63 850.645,444.692 		"/>
		<polygon opacity="0.1" enable-background="new    " points="872.297,367.84 1161.466,255.63 1026.584,337.673 		"/>
		<polygon fill="#8C313E" points="872.297,367.84 1161.466,255.63 1059.821,16.864 		"/>
		<polygon fill="#702B38" points="1328.658,403.225 1161.466,255.63 1059.821,16.864 1346.696,55.316 		"/>
		<polygon fill="#9B3B4D" points="1520.204,146.412 1579.47,390.965 1328.658,403.225 1346.696,55.316 		"/>
		<polygon fill="#8C313E" points="1520.204,146.412 1579.47,390.965 1660.535,495.703 		"/>
	</g>
	<g>
		<polygon fill="#8C313E" points="-123,173.9 -6.344,450.498 386.505,413.732 113.757,174.825 		"/>
		<polygon fill="#8C313E" points="676.593,880.765 296.545,1003.107 503.637,818.972 		"/>
		<polygon fill="#9B3B4D" points="676.593,880.765 503.637,818.972 499.912,709.587 		"/>
		<polygon fill="#8C313E" points="386.438,574.486 227.461,674.974 503.637,818.972 499.912,709.587 		"/>
		<polygon fill="#702B38" points="227.461,674.974 -6.344,450.498 386.438,574.486 		"/>
	</g>
</g>
</svg>
