<?xml version="1.0" encoding="utf-8"?>
<!-- Generator: Adobe Illustrator 15.1.0, SVG Export Plug-In . SVG Version: 6.00 Build 0)  -->
<!DOCTYPE svg PUBLIC "-//W3C//DTD SVG 1.1//EN" "http://www.w3.org/Graphics/SVG/1.1/DTD/svg11.dtd">
<svg version="1.1" id="Layer_1" xmlns="http://www.w3.org/2000/svg" xmlns:xlink="http://www.w3.org/1999/xlink" x="0px" y="0px"
	 width="1300px" height="1024.842px" viewBox="0 0 1300 1024.842" enable-background="new 0 0 1300 1024.842" xml:space="preserve">
<g opacity="0.2">
	<g>
		<polygon fill="#006064" points="1416.462,249.55 1328.746,401.742 1153.252,218.308 		"/>
		<polygon fill="#00838F" points="1153.252,218.308 1328.746,401.742 889.994,187.563 		"/>
		<polygon fill="#00838F" points="1153.246,218.362 1416.454,249.631 1542.714,6.283 1231.199,-24.153 		"/>
		<polygon fill="#0097A7" points="1153.252,218.308 889.994,187.563 847.863,53.161 		"/>
		<polygon fill="#00838F" points="759.914,116.912 692.189,323.304 889.994,187.563 847.863,53.161 		"/>
		<polygon fill="#0097A7" points="692.189,323.304 451.027,206.969 759.914,116.912 		"/>
		<polygon opacity="0.1" points="692.189,323.304 451.027,206.969 648.977,149.256 		"/>
		<polygon fill="#006064" points="692.189,323.304 451.027,206.969 554.822,8.455 		"/>
		<polygon fill="#0097A7" points="297.058,322.544 451.027,206.969 554.822,8.455 305.331,21.924 		"/>
		<polygon fill="#00838F" points="149.79,88.448 82.066,294.84 297.058,322.544 305.331,21.924 		"/>
		<polygon fill="#006064" points="149.79,88.448 82.066,294.84 5.144,379.428 		"/>
	</g>
	<g>
		<polygon fill="#00838F" points="1291.03,513.102 911.723,504.845 889.994,187.563 1328.746,401.742 		"/>
		<polygon fill="#00838F" points="419.25,709.26 278.707,1003.989 650.703,726.849 		"/>
		<polygon fill="#0097A7" points="419.25,709.26 650.703,726.849 711.248,602.479 		"/>
		<polygon fill="#00838F" points="911.723,504.845 1043.596,702.605 650.703,726.849 711.248,602.479 		"/>
		<polygon fill="#006064" points="1043.596,702.605 1291.03,513.102 911.723,504.845 		"/>
	</g>
</g>
</svg>
