<?xml version="1.0" encoding="utf-8"?>
<!-- Generator: Adobe Illustrator 15.1.0, SVG Export Plug-In . SVG Version: 6.00 Build 0)  -->
<!DOCTYPE svg PUBLIC "-//W3C//DTD SVG 1.1//EN" "http://www.w3.org/Graphics/SVG/1.1/DTD/svg11.dtd">
<svg version="1.1" id="Layer_1" xmlns="http://www.w3.org/2000/svg" xmlns:xlink="http://www.w3.org/1999/xlink" x="0px" y="0px"
	 width="1405.553px" height="1055.949px" viewBox="0 0 1405.553 1055.949" enable-background="new 0 0 1405.553 1055.949"
	 xml:space="preserve">
<g opacity="0.15">
	<g>
		<polygon fill="#01579B" points="-4,144.5 68.5,304.5 261,139 		"/>
		<polygon fill="#0277BD" points="261,139 68.5,304.5 526,134 		"/>
		<polygon fill="#0277BD" points="261,139 -4,144.5 -106,-110 206.999,-110 		"/>
		<polygon fill="#039BE5" points="261,139 526,134 581,4.333 		"/>
		<polygon fill="#0277BD" points="662.334,76.333 709.667,288.333 526,134 581,4.333 		"/>
		<polygon fill="#039BE5" points="709.667,288.333 961,196 662.334,76.333 		"/>
		<polygon opacity="0.25" fill="#01579B" enable-background="new    " points="709.667,288.333 961,196 790.395,127.643 		"/>
		<polygon fill="#01579B" points="709.667,288.333 961,196 877,-11.667 		"/>
		<polygon fill="#0288D1" points="1103,326 961,196 877,-11.667 1124,26 		"/>
		<polygon fill="#0277BD" points="1272.334,107.333 1319.667,319.333 1103,326 1124,26 		"/>
		<polygon fill="#01579B" points="1272.334,107.333 1319.667,319.333 1388,411 		"/>
	</g>
	<g>
		<polygon fill="#0277BD" points="95.209,419 473.521,447.667 526,134 68.5,304.5 		"/>
		<polygon fill="#0277BD" points="943.783,699 1055,1006 711.717,694 		"/>
		<polygon fill="#039BE5" points="943.783,699 711.717,694 663.553,564.333 		"/>
		<polygon fill="#0277BD" points="473.521,447.667 323.042,631.666 711.717,694 663.553,564.333 		"/>
		<polygon fill="#01579B" points="323.042,631.666 95.209,419 473.521,447.667 		"/>
	</g>
</g>
</svg>
