<?xml version="1.0" encoding="utf-8"?>
<!-- Generator: Adobe Illustrator 15.1.0, SVG Export Plug-In . SVG Version: 6.00 Build 0)  -->
<!DOCTYPE svg PUBLIC "-//W3C//DTD SVG 1.1//EN" "http://www.w3.org/Graphics/SVG/1.1/DTD/svg11.dtd">
<svg version="1.1" id="Layer_1" xmlns="http://www.w3.org/2000/svg" xmlns:xlink="http://www.w3.org/1999/xlink" x="0px" y="0px"
	 width="1438.856px" height="1034.364px" viewBox="0 0 1438.856 1034.364" enable-background="new 0 0 1438.856 1034.364"
	 xml:space="preserve">
<g opacity="0.2">
	<g>
		<polygon fill="#1A237E" points="152.467,24.565 326.565,1.2 288.312,252.165 		"/>
		<polygon fill="#303F9F" points="288.312,252.165 326.565,1.2 424.581,479.499 		"/>
		<polygon fill="#303F9F" points="288.312,252.164 152.467,24.565 -117.396,73.025 48.562,338.404 		"/>
		<polygon fill="#3949AB" points="288.312,252.165 424.581,479.499 343.803,594.884 		"/>
		<polygon fill="#303F9F" points="447.975,625.667 652.817,553.392 424.581,479.499 343.803,594.884 		"/>
		<polygon fill="#3949AB" points="652.817,553.392 707.795,815.444 447.975,625.667 		"/>
		<polygon opacity="0.25" fill="#01579B" points="652.817,553.392 707.795,815.444 559.377,707.038 		"/>
		<polygon fill="#1A237E" points="652.817,553.392 707.795,815.444 487.184,854.332 		"/>
		<polygon fill="#3949AB" points="893.308,866.911 707.795,815.444 487.184,854.332 650.084,1043.783 		"/>
		<polygon fill="#303F9F" points="893.308,866.911 1098.492,793.972 1034.772,684.745 707.795,815.444 		"/>
		<polygon fill="#1A237E" points="1098.492,793.972 1034.772,684.745 1372.15,664.618 		"/>
	</g>
	<g>
		<polygon fill="#303F9F" points="437.807,-36.864 662.7,268.692 424.581,479.499 326.565,1.2 		"/>
		<polygon fill="#303F9F" points="1125.139,534.146 1356.545,147.026 997.854,340.038 		"/>
		<polygon fill="#3949AB" points="1125.139,534.146 997.854,340.038 862.375,367.953 		"/>
		<polygon fill="#303F9F" points="662.7,268.692 738.92,43.547 997.854,340.038 862.375,367.953 		"/>
		<polygon fill="#1A237E" points="738.92,43.547 437.807,-36.864 662.7,268.692 		"/>
		<polygon opacity="0.1" points="1199.546,409.668 1356.545,147.026 997.854,340.038 		"/>
		<polygon fill="#3949AB" points="1419.694,444.598 1356.545,147.026 997.854,340.038 		"/>
	</g>
</g>
</svg>
